<svg xmlns="http://www.w3.org/2000/svg" viewBox="0 0 750 500"><g id="freepik--background-complete--inject-21"><polygon points="75.53 201.05 109.05 201.05 109.05 241.76 117.67 241.76 117.67 218.71 160.3 218.71 160.3 255.21 165.95 255.21 165.95 169.56 202.99 169.56 202.99 193.07 221.99 193.07 221.99 222.32 227.74 222.32 227.74 203.93 261.41 203.93 261.41 258.82 271.27 258.82 271.27 214.19 302.07 214.19 302.07 180.3 323.01 180.3 323.01 161 347.25 161 347.25 246.61 355.39 246.61 355.39 210.89 395.3 210.89 395.3 262.03 400.82 262.03 400.82 220.28 441.29 220.28 441.29 182.68 461.94 182.68 461.94 372.01 75.53 372.01 75.53 201.05" style="fill:#ebebeb"></polygon><rect x="79.64" y="206.17" width="5.67" height="7.78" style="fill:#fff"></rect><rect x="89.47" y="206.17" width="5.67" height="7.78" style="fill:#fff"></rect><rect x="99.3" y="206.17" width="5.67" height="7.78" style="fill:#fff"></rect><rect x="79.64" y="217.88" width="5.67" height="7.78" style="fill:#fff"></rect><rect x="89.47" y="217.88" width="5.67" height="7.78" style="fill:#fff"></rect><rect x="99.3" y="217.88" width="5.67" height="7.78" style="fill:#fff"></rect><rect x="79.64" y="229.59" width="5.67" height="7.78" style="fill:#fff"></rect><rect x="89.47" y="229.59" width="5.67" height="7.78" style="fill:#fff"></rect><rect x="99.3" y="229.59" width="5.67" height="7.78" style="fill:#fff"></rect><rect x="79.64" y="241.3" width="5.67" height="7.78" style="fill:#fff"></rect><rect x="89.47" y="241.3" width="5.67" height="7.78" style="fill:#fff"></rect><rect x="99.3" y="241.3" width="5.67" height="7.78" style="fill:#fff"></rect><rect x="276" y="219.76" width="5.67" height="6.49" style="fill:#fff"></rect><rect x="285.83" y="219.76" width="5.67" height="6.49" style="fill:#fff"></rect><rect x="295.66" y="219.76" width="5.67" height="6.49" style="fill:#fff"></rect><rect x="276" y="229.53" width="5.67" height="6.49" style="fill:#fff"></rect><rect x="285.83" y="229.53" width="5.67" height="6.49" style="fill:#fff"></rect><rect x="295.66" y="229.53" width="5.67" height="6.49" style="fill:#fff"></rect><rect x="276" y="239.3" width="5.67" height="6.49" style="fill:#fff"></rect><rect x="285.83" y="239.3" width="5.67" height="6.49" style="fill:#fff"></rect><rect x="295.66" y="239.3" width="5.67" height="6.49" style="fill:#fff"></rect><rect x="276" y="249.07" width="5.67" height="6.49" style="fill:#fff"></rect><rect x="285.83" y="249.07" width="5.67" height="6.49" style="fill:#fff"></rect><rect x="295.66" y="249.07" width="5.67" height="6.49" style="fill:#fff"></rect><rect x="276" y="259.08" width="5.67" height="6.49" style="fill:#fff"></rect><rect x="285.83" y="259.08" width="5.67" height="6.49" style="fill:#fff"></rect><rect x="295.66" y="259.08" width="5.67" height="6.49" style="fill:#fff"></rect><rect x="276" y="269.09" width="5.67" height="6.49" style="fill:#fff"></rect><rect x="285.83" y="269.09" width="5.67" height="6.49" style="fill:#fff"></rect><rect x="295.66" y="269.09" width="5.67" height="6.49" style="fill:#fff"></rect><rect x="276" y="279.1" width="5.67" height="6.49" style="fill:#fff"></rect><rect x="285.83" y="279.1" width="5.67" height="6.49" style="fill:#fff"></rect><rect x="295.66" y="279.1" width="5.67" height="6.49" style="fill:#fff"></rect><rect x="276" y="289.11" width="5.67" height="6.49" style="fill:#fff"></rect><rect x="285.83" y="289.11" width="5.67" height="6.49" style="fill:#fff"></rect><rect x="295.66" y="289.11" width="5.67" height="6.49" style="fill:#fff"></rect><rect x="122.52" y="223.71" width="32.65" height="4.87" style="fill:#fff"></rect><rect x="122.52" y="233.15" width="32.65" height="4.87" style="fill:#fff"></rect><rect x="122.52" y="242.6" width="32.65" height="4.87" style="fill:#fff"></rect><rect x="122.52" y="252.04" width="32.65" height="4.87" style="fill:#fff"></rect><rect x="122.52" y="261.49" width="32.65" height="4.87" style="fill:#fff"></rect><rect x="122.52" y="270.93" width="32.65" height="4.87" style="fill:#fff"></rect><rect x="122.52" y="280.38" width="32.65" height="4.87" style="fill:#fff"></rect><rect x="122.52" y="289.82" width="32.65" height="4.87" style="fill:#fff"></rect><rect x="360.21" y="215.42" width="30.02" height="4.87" style="fill:#fff"></rect><rect x="360.21" y="224.87" width="30.02" height="4.87" style="fill:#fff"></rect><rect x="360.21" y="234.31" width="30.02" height="4.87" style="fill:#fff"></rect><rect x="360.21" y="243.76" width="30.02" height="4.87" style="fill:#fff"></rect><rect x="360.21" y="253.2" width="30.02" height="4.87" style="fill:#fff"></rect><rect x="360.21" y="262.65" width="30.02" height="4.87" style="fill:#fff"></rect><rect x="360.21" y="272.09" width="30.02" height="4.87" style="fill:#fff"></rect><rect x="360.21" y="281.54" width="30.02" height="4.87" style="fill:#fff"></rect><rect x="360.21" y="290.51" width="30.02" height="4.87" style="fill:#fff"></rect><rect x="360.21" y="299.49" width="30.02" height="4.87" style="fill:#fff"></rect><rect x="360.21" y="308.46" width="30.02" height="4.87" style="fill:#fff"></rect><rect x="360.21" y="317.44" width="30.02" height="4.87" style="fill:#fff"></rect><rect x="360.21" y="326.41" width="30.02" height="4.87" style="fill:#fff"></rect><rect x="407.06" y="226.83" width="31.71" height="4.87" style="fill:#fff"></rect><rect x="407.06" y="236.28" width="31.71" height="4.87" style="fill:#fff"></rect><rect x="407.06" y="245.72" width="31.71" height="4.87" style="fill:#fff"></rect><rect x="407.06" y="255.17" width="31.71" height="4.87" style="fill:#fff"></rect><rect x="407.06" y="264.61" width="31.71" height="4.87" style="fill:#fff"></rect><rect x="407.06" y="274.06" width="31.71" height="4.87" style="fill:#fff"></rect><rect x="407.06" y="283.5" width="31.71" height="4.87" style="fill:#fff"></rect><rect x="407.06" y="292.95" width="31.71" height="4.87" style="fill:#fff"></rect><rect x="407.06" y="301.4" width="31.71" height="4.87" style="fill:#fff"></rect><rect x="407.06" y="309.85" width="31.71" height="4.87" style="fill:#fff"></rect><rect x="407.06" y="318.31" width="31.71" height="4.87" style="fill:#fff"></rect><rect x="237.59" y="208.33" width="10.08" height="4.7" style="fill:#fff"></rect><rect x="237.59" y="217.45" width="10.08" height="4.7" style="fill:#fff"></rect><rect x="237.59" y="226.58" width="10.08" height="4.7" style="fill:#fff"></rect><rect x="237.59" y="235.7" width="10.08" height="4.7" style="fill:#fff"></rect><rect x="237.59" y="244.82" width="10.08" height="4.7" style="fill:#fff"></rect><rect x="237.59" y="253.94" width="10.08" height="4.7" style="fill:#fff"></rect><rect x="237.59" y="263.06" width="10.08" height="4.7" style="fill:#fff"></rect><rect x="237.59" y="272.18" width="10.08" height="4.7" style="fill:#fff"></rect><rect x="251.31" y="208.33" width="10.08" height="4.7" style="fill:#fff"></rect><rect x="251.31" y="217.45" width="10.08" height="4.7" style="fill:#fff"></rect><rect x="251.31" y="226.58" width="10.08" height="4.7" style="fill:#fff"></rect><rect x="251.31" y="235.7" width="10.08" height="4.7" style="fill:#fff"></rect><rect x="251.31" y="244.82" width="10.08" height="4.7" style="fill:#fff"></rect><rect x="251.31" y="253.94" width="10.08" height="4.7" style="fill:#fff"></rect><rect x="251.31" y="263.06" width="10.08" height="4.7" style="fill:#fff"></rect><rect x="251.31" y="272.18" width="10.08" height="4.7" style="fill:#fff"></rect><rect x="171.56" y="174.5" width="10.51" height="7.41" style="fill:#fff"></rect><rect x="187.23" y="174.5" width="10.5" height="7.41" style="fill:#fff"></rect><rect x="171.56" y="185.39" width="10.51" height="7.41" style="fill:#fff"></rect><rect x="187.23" y="185.39" width="10.5" height="7.41" style="fill:#fff"></rect><rect x="171.56" y="196.28" width="10.51" height="7.41" style="fill:#fff"></rect><rect x="187.23" y="196.28" width="10.5" height="7.41" style="fill:#fff"></rect><rect x="171.56" y="207.17" width="10.51" height="7.41" style="fill:#fff"></rect><rect x="187.23" y="207.17" width="10.5" height="7.41" style="fill:#fff"></rect><rect x="171.56" y="218.06" width="10.51" height="7.41" style="fill:#fff"></rect><rect x="187.23" y="218.06" width="10.5" height="7.41" style="fill:#fff"></rect><rect x="171.56" y="228.95" width="10.51" height="7.41" style="fill:#fff"></rect><rect x="187.23" y="228.95" width="10.5" height="7.41" style="fill:#fff"></rect><rect x="171.56" y="239.84" width="10.51" height="7.41" style="fill:#fff"></rect><rect x="187.23" y="239.84" width="10.5" height="7.41" style="fill:#fff"></rect><rect x="171.56" y="250.73" width="10.51" height="7.41" style="fill:#fff"></rect><rect x="187.23" y="250.73" width="10.5" height="7.41" style="fill:#fff"></rect><rect x="206.64" y="196.28" width="10.5" height="7.41" style="fill:#fff"></rect><rect x="206.64" y="207.17" width="10.5" height="7.41" style="fill:#fff"></rect><rect x="206.64" y="218.06" width="10.5" height="7.41" style="fill:#fff"></rect><rect x="206.64" y="228.95" width="10.5" height="7.41" style="fill:#fff"></rect><rect x="206.64" y="239.84" width="10.5" height="7.41" style="fill:#fff"></rect><rect x="206.64" y="250.73" width="10.5" height="7.41" style="fill:#fff"></rect><rect x="171.56" y="261.49" width="10.51" height="7.41" style="fill:#fff"></rect><rect x="187.23" y="261.49" width="10.5" height="7.41" style="fill:#fff"></rect><rect x="206.64" y="261.49" width="10.5" height="7.41" style="fill:#fff"></rect><rect x="171.56" y="272.25" width="10.51" height="7.41" style="fill:#fff"></rect><rect x="187.23" y="272.25" width="10.5" height="7.41" style="fill:#fff"></rect><rect x="206.64" y="272.25" width="10.5" height="7.41" style="fill:#fff"></rect><rect x="171.56" y="283.01" width="10.51" height="7.41" style="fill:#fff"></rect><rect x="187.23" y="283.01" width="10.5" height="7.41" style="fill:#fff"></rect><rect x="206.64" y="283.01" width="10.5" height="7.41" style="fill:#fff"></rect><rect x="171.56" y="293.77" width="10.51" height="7.41" style="fill:#fff"></rect><rect x="187.23" y="293.77" width="10.5" height="7.41" style="fill:#fff"></rect><rect x="206.64" y="293.77" width="10.5" height="7.41" style="fill:#fff"></rect><rect x="171.56" y="304.53" width="10.51" height="7.41" style="fill:#fff"></rect><rect x="187.23" y="304.53" width="10.5" height="7.41" style="fill:#fff"></rect><rect x="206.64" y="304.53" width="10.5" height="7.41" style="fill:#fff"></rect><rect x="306.35" y="185.08" width="5.67" height="6.49" style="fill:#fff"></rect><rect x="316.18" y="185.08" width="5.67" height="6.49" style="fill:#fff"></rect><rect x="306.35" y="194.85" width="5.67" height="6.49" style="fill:#fff"></rect><rect x="316.18" y="194.85" width="5.67" height="6.49" style="fill:#fff"></rect><rect x="306.35" y="204.62" width="5.67" height="6.49" style="fill:#fff"></rect><rect x="316.18" y="204.62" width="5.67" height="6.49" style="fill:#fff"></rect><rect x="306.35" y="214.39" width="5.67" height="6.49" style="fill:#fff"></rect><rect x="316.18" y="214.39" width="5.67" height="6.49" style="fill:#fff"></rect><rect x="306.35" y="224.4" width="5.67" height="6.49" style="fill:#fff"></rect><rect x="316.18" y="224.4" width="5.67" height="6.49" style="fill:#fff"></rect><rect x="306.35" y="234.41" width="5.67" height="6.49" style="fill:#fff"></rect><rect x="316.18" y="234.41" width="5.67" height="6.49" style="fill:#fff"></rect><rect x="306.35" y="244.42" width="5.67" height="6.49" style="fill:#fff"></rect><rect x="316.18" y="244.42" width="5.67" height="6.49" style="fill:#fff"></rect><rect x="306.35" y="254.43" width="5.67" height="6.49" style="fill:#fff"></rect><rect x="316.18" y="254.43" width="5.67" height="6.49" style="fill:#fff"></rect><rect x="306.35" y="264.55" width="5.67" height="6.49" style="fill:#fff"></rect><rect x="316.18" y="264.55" width="5.67" height="6.49" style="fill:#fff"></rect><rect x="306.35" y="274.67" width="5.67" height="6.49" style="fill:#fff"></rect><rect x="316.18" y="274.67" width="5.67" height="6.49" style="fill:#fff"></rect><rect x="306.35" y="284.79" width="5.67" height="6.49" style="fill:#fff"></rect><rect x="316.18" y="284.79" width="5.67" height="6.49" style="fill:#fff"></rect><rect x="306.35" y="294.91" width="5.67" height="6.49" style="fill:#fff"></rect><rect x="316.18" y="294.91" width="5.67" height="6.49" style="fill:#fff"></rect><rect x="444.84" y="186.13" width="5.67" height="7.65" style="fill:#fff"></rect><rect x="454.68" y="186.13" width="5.67" height="7.65" style="fill:#fff"></rect><rect x="444.84" y="197.64" width="5.67" height="7.65" style="fill:#fff"></rect><rect x="454.68" y="197.64" width="5.67" height="7.65" style="fill:#fff"></rect><rect x="444.84" y="209.15" width="5.67" height="7.65" style="fill:#fff"></rect><rect x="454.68" y="209.15" width="5.67" height="7.65" style="fill:#fff"></rect><rect x="444.84" y="220.66" width="5.67" height="7.65" style="fill:#fff"></rect><rect x="454.68" y="220.66" width="5.67" height="7.65" style="fill:#fff"></rect><rect x="444.84" y="232.46" width="5.67" height="7.65" style="fill:#fff"></rect><rect x="454.68" y="232.46" width="5.67" height="7.65" style="fill:#fff"></rect><rect x="444.84" y="244.25" width="5.67" height="7.65" style="fill:#fff"></rect><rect x="454.68" y="244.25" width="5.67" height="7.65" style="fill:#fff"></rect><rect x="444.84" y="256.05" width="5.67" height="7.65" style="fill:#fff"></rect><rect x="454.68" y="256.05" width="5.67" height="7.65" style="fill:#fff"></rect><rect x="444.84" y="267.84" width="5.67" height="7.65" style="fill:#fff"></rect><rect x="454.68" y="267.84" width="5.67" height="7.65" style="fill:#fff"></rect><rect x="444.84" y="279.76" width="5.67" height="7.65" style="fill:#fff"></rect><rect x="454.68" y="279.76" width="5.67" height="7.65" style="fill:#fff"></rect><rect x="444.84" y="291.68" width="5.67" height="7.65" style="fill:#fff"></rect><rect x="454.68" y="291.68" width="5.67" height="7.65" style="fill:#fff"></rect><rect x="444.84" y="303.6" width="5.67" height="7.65" style="fill:#fff"></rect><rect x="454.68" y="303.6" width="5.67" height="7.65" style="fill:#fff"></rect><rect x="444.84" y="315.53" width="5.67" height="7.65" style="fill:#fff"></rect><rect x="454.68" y="315.53" width="5.67" height="7.65" style="fill:#fff"></rect><rect x="327.37" y="185.08" width="5.67" height="6.49" style="fill:#fff"></rect><rect x="337.2" y="185.08" width="5.67" height="6.49" style="fill:#fff"></rect><rect x="327.37" y="175.06" width="5.67" height="6.49" style="fill:#fff"></rect><rect x="337.2" y="175.06" width="5.67" height="6.49" style="fill:#fff"></rect><rect x="327.37" y="165.04" width="5.67" height="6.49" style="fill:#fff"></rect><rect x="337.2" y="165.04" width="5.67" height="6.49" style="fill:#fff"></rect><rect x="327.37" y="194.85" width="5.67" height="6.49" style="fill:#fff"></rect><rect x="337.2" y="194.85" width="5.67" height="6.49" style="fill:#fff"></rect><rect x="327.37" y="204.62" width="5.67" height="6.49" style="fill:#fff"></rect><rect x="337.2" y="204.62" width="5.67" height="6.49" style="fill:#fff"></rect><rect x="327.37" y="214.39" width="5.67" height="6.49" style="fill:#fff"></rect><rect x="337.2" y="214.39" width="5.67" height="6.49" style="fill:#fff"></rect><rect x="327.37" y="224.4" width="5.67" height="6.49" style="fill:#fff"></rect><rect x="337.2" y="224.4" width="5.67" height="6.49" style="fill:#fff"></rect><rect x="327.37" y="234.41" width="5.67" height="6.49" style="fill:#fff"></rect><rect x="337.2" y="234.41" width="5.67" height="6.49" style="fill:#fff"></rect><rect x="327.37" y="244.42" width="5.67" height="6.49" style="fill:#fff"></rect><rect x="337.2" y="244.42" width="5.67" height="6.49" style="fill:#fff"></rect><rect x="327.37" y="254.43" width="5.67" height="6.49" style="fill:#fff"></rect><rect x="337.2" y="254.43" width="5.67" height="6.49" style="fill:#fff"></rect><rect x="327.37" y="264.55" width="5.67" height="6.49" style="fill:#fff"></rect><rect x="337.2" y="264.55" width="5.67" height="6.49" style="fill:#fff"></rect><rect x="327.37" y="274.67" width="5.67" height="6.49" style="fill:#fff"></rect><rect x="337.2" y="274.67" width="5.67" height="6.49" style="fill:#fff"></rect><rect x="327.37" y="284.79" width="5.67" height="6.49" style="fill:#fff"></rect><rect x="337.2" y="284.79" width="5.67" height="6.49" style="fill:#fff"></rect><rect x="327.37" y="294.91" width="5.67" height="6.49" style="fill:#fff"></rect><rect x="337.2" y="294.91" width="5.67" height="6.49" style="fill:#fff"></rect><path d="M225.33,372s-3.32-15.48-9.94-17.87-10.66,4.56-10.66,4.56-1.56-14.79-11-19.22-16.45,4.64-16.45,4.64-7.21-18.77-20.09-18.77-19.38,27.47-19.38,27.47-7.6-8.19-15.39-3.57-7.8,22.76-7.8,22.76Z" style="fill:#dbdbdb"></path><path d="M421.21,372H304.73s3.84-16.42,11.56-17.59,11.32,6.46,11.32,6.46-.35-22.91,14.08-26.81,26.52,16.34,26.52,16.34,9.05-11.54,21.37-10.8S405,359.41,405,359.41,416.26,352.79,421.21,372Z" style="fill:#dbdbdb"></path><path d="M121.82,372H60.5s.14-9.13,6.17-11.55a8.22,8.22,0,0,1,9.61,2.3S78.74,346,90,346s16.61,14.48,16.61,14.48,2.52-4.38,8.75-3.56S121.82,372,121.82,372Z" style="fill:#c7c7c7"></path><path d="M572.46,372H511.14s.14-9.13,6.17-11.55a8.22,8.22,0,0,1,9.61,2.3S529.38,346,540.61,346s16.61,14.48,16.61,14.48,2.52-4.38,8.75-3.56S572.46,372,572.46,372Z" style="fill:#dbdbdb"></path><path d="M687.15,372H560.83s.29-18.8,12.71-23.79a16.91,16.91,0,0,1,19.8,4.74s5.07-34.56,28.21-34.56,34.22,29.82,34.22,29.82,5.18-9,18-7.34S687.15,372,687.15,372Z" style="fill:#ebebeb"></path><path d="M168.74,133.53l-87.61-.13s4.36-5.67,9.17-6.37c0,0,9.38-27.79,25-28,14.54-.17,20.34,17.13,20.34,17.13s6.74-7.74,13.17-4.19,10.06,13.71,10.06,13.71S166.12,129.63,168.74,133.53Z" style="fill:#ebebeb"></path><path d="M558.08,85.88l110.79.17s0-7.08-15.25-8.49c0,0-13.89-31-35.17-26.83C605.2,53.29,598.4,71.48,598.4,71.48s-10-14.34-18-11.58-12.8,18-12.8,18S559.34,81.88,558.08,85.88Z" style="fill:#ebebeb"></path><path d="M211.45,82.07l75.34.11s-7.1-6.62-10.26-6.63S264.18,53.32,252.4,54.24,234.33,71.7,234.33,71.7,220,67.19,211.45,82.07Z" style="fill:#ebebeb"></path><path d="M476.3,135.83l64.42.1s-3.19-4.18-6.72-4.7c0,0-6.84-20.46-18.34-20.62-10.69-.16-15,12.55-15,12.55s-4.94-5.71-9.68-3.11-7.43,10.06-7.43,10.06S478.24,133,476.3,135.83Z" style="fill:#ebebeb"></path><path d="M635.93,219.19s-41.34,92.07,26.31,92.07,23.8-95.2,23.8-95.2,15.65-6.89-2.51-58.25-26.28-51.35-33.82-51.35c-9.53,0-18.41,22.23-11.9,56.36C637.81,162.82,614,205.41,635.93,219.19Z" style="fill:#ebebeb"></path><polygon points="668.24 372.32 661.72 233.63 655.2 372.32 668.24 372.32" style="fill:#a6a6a6"></polygon><polygon points="664.37 291.78 639.78 263.06 659.07 295.57 664.37 291.78" style="fill:#a6a6a6"></polygon><path d="M609.25,229.09s19.29-7.65,34.6,19c15.7,27.32-4,45.31-19.59,34.6,0,0-12.25,25.72-36.75,19.59S559,276.55,559,276.55s-21.74,1.53-22.35-14.69S552,231.24,552,231.24s.91-40.42,27.25-40.11S609.25,229.09,609.25,229.09Z" style="fill:#dbdbdb"></path><polygon points="591.34 372.32 585.83 252.06 580.32 372.32 591.34 372.32" style="fill:#a6a6a6"></polygon><polygon points="588.19 295.81 604.37 263.52 583.47 292.97 588.19 295.81" style="fill:#a6a6a6"></polygon></g><g id="freepik--Shadow--inject-21"><ellipse cx="375" cy="429.79" rx="203.53" ry="24.36" style="fill:#ebebeb"></ellipse></g><g id="freepik--Floor--inject-21"><polygon points="59.55 372.01 138.41 371.77 217.27 371.68 375 371.51 532.73 371.68 611.59 371.76 690.45 372.01 611.59 372.25 532.73 372.34 375 372.51 217.27 372.34 138.41 372.25 59.55 372.01" style="fill:#263238"></polygon></g><g id="freepik--character-2--inject-21"><path d="M355.38,413.73c2.05.66,62.77-.1,65-1.55.85-.53-3.41-57.66-3.41-57.66l-39.24.39,4.18,38.22s-22.32,10.33-24.59,12.18S353.32,413.07,355.38,413.73Z" style="fill:#ffc4c0"></path><path d="M420.36,412.18c-2.21,1.45-62.93,2.21-65,1.55s-.32-6.57,1.92-8.41,24.59-12.18,24.59-12.18l-1-9.09c10.59-.32,28-.93,38.05-1.28C419.92,397.24,420.79,411.91,420.36,412.18Z" style="fill:#ebebeb"></path><path d="M354.64,414.14c2.15.64,63.83.11,66.09-1.44.87-.58-1.27-22-1.27-22.11l-37.77.9,0,.67s-23,11.22-25.27,13.2S352.49,413.5,354.64,414.14Z" style="fill:#455a64"></path><path d="M355.25,411.75c10.26-.6,51.69-2.07,61.88-1.88.08,0,.09.05,0,.06-10.15.82-51.6,1.95-61.87,2C355,411.92,355,411.76,355.25,411.75Z" style="fill:#263238"></path><path d="M378.43,392.39c4-.89,9-.44,12.16,2.33.13.11,0,.28-.16.25a57,57,0,0,0-12-2.07A.26.26,0,0,1,378.43,392.39Z" style="fill:#263238"></path><path d="M375.57,394.25c4-.9,9-.44,12.17,2.33.12.11,0,.28-.17.24a56.4,56.4,0,0,0-12-2.06A.26.26,0,0,1,375.57,394.25Z" style="fill:#263238"></path><path d="M372.72,396.1c4-.89,9-.44,12.16,2.34.12.1,0,.28-.16.24a57,57,0,0,0-12-2.07A.26.26,0,0,1,372.72,396.1Z" style="fill:#263238"></path><path d="M379.62,392.83h42.24s-5.73-98.87-5.4-100.59c.42-2.21,24.2-106.68,24.2-106.68H404.85s-29.44,96.9-30.57,106.25C372.45,306.92,379.62,392.83,379.62,392.83Z" style="fill:#263238"></path><path d="M380.85,385.14c6.45-.14,4.59-.19,11-.25,3.15,0,23.9-.21,26.85.27.07,0,.07.13,0,.14-2.95.48-23.7.3-26.85.27-6.46-.06-4.6-.11-11-.25A.09.09,0,1,1,380.85,385.14Z" style="fill:#37474f"></path><path d="M434.48,194.39c-3.35,11.9-6.25,23.93-9.28,35.91s-6.05,24-9.06,36c-1.48,5.89-3.08,11.77-4.37,17.71a70.6,70.6,0,0,0-1.29,17.95c.51,12.34,1.17,24.68,1.77,37s1.26,24.7,2,37.05c.1,1.54.19,3.08.28,4.63a.09.09,0,0,0,.17,0c-.92-24.71-2-49.4-3.25-74.1-.3-6.18-.68-12.39.27-18.54.9-5.82,2.56-11.53,4-17.23q4.53-18,9-36c3.35-13.43,6.88-26.83,9.89-40.35A.09.09,0,0,0,434.48,194.39Z" style="fill:#37474f"></path><path d="M496.07,413.72c-2.06.67-53.08,0-55.31-1.42-.85-.53-1.28-9.13-1.49-19.53v-.32c0-2.14-5.49-38.09-5.49-38.09l38.53.24,5,38.41s14.54,10.41,16.82,12.26S498.14,413.05,496.07,413.72Z" style="fill:#ffc4c0"></path><path d="M496.07,413.72c-2.07.67-53.07,0-55.3-1.41-.86-.54-1.29-9.13-1.5-19.54v-.33c0-.45-.26-2.43-.66-5.27l38,.62.67,5.22s14.54,10.41,16.82,12.26S498.13,413.05,496.07,413.72Z" style="fill:#dbdbdb"></path><path d="M498,415.06c-2.14.67-55.26.12-57.55-1.41-.88-.56-1.25-21.2-1.25-21.31l38.13,0,.17.62S493.69,404.36,496,406.3,500.11,414.39,498,415.06Z" style="fill:#455a64"></path><path d="M497.33,412.68c-10.27-.46-45.37-1.43-55.55-1.1-.09,0-.09.06,0,.06,10.17.68,45.28,1.31,55.55,1.21C497.54,412.85,497.54,412.69,497.33,412.68Z" style="fill:#263238"></path><path d="M477,394.65c-3.78-1.62-8.74-2.09-12.39.05-.14.08,0,.28.12.27a56.64,56.64,0,0,1,12.14.17A.26.26,0,0,0,477,394.65Z" style="fill:#263238"></path><path d="M479.49,397c-3.78-1.62-8.74-2.09-12.38.05-.14.08,0,.28.12.27a56.66,56.66,0,0,1,12.14.17A.25.25,0,0,0,479.49,397Z" style="fill:#263238"></path><path d="M482,399.35c-3.78-1.62-8.74-2.09-12.38,0-.15.08,0,.28.11.27a57.29,57.29,0,0,1,12.14.17A.26.26,0,0,0,482,399.35Z" style="fill:#263238"></path><path d="M409.38,185.56s5.42,33.09,5.79,34.15c0,0,2,1,5.66,2.64l15.59,170.31,42.45.17L459.55,220.05s2.75-25.15-3.85-34.49Z" style="fill:#263238"></path><path d="M437.62,385c6.49-.11,4.62-.17,11.11-.21,3.17,0,24-.11,27,.4.06,0,.06.12,0,.13-3,.48-23.82.21-27,.16-6.49-.09-4.63-.13-11.11-.3A.09.09,0,1,1,437.62,385Z" style="fill:#37474f"></path><path d="M413.41,218.69A79.07,79.07,0,0,1,425.54,225c.15.1,0,.33-.12.25-4.1-2-8.28-3.9-12.26-6.11A.28.28,0,0,1,413.41,218.69Z" style="fill:#37474f"></path><path d="M415,199.73c.67,4,1,8,1.48,12,.11,1,.23,1.92.33,2.87a5.53,5.53,0,0,0,.69,2.52c.86,1.34,2.4,2,3.8,2.57.16.07.09.33-.08.27a9.33,9.33,0,0,1-4-2.13c-1.27-1.35-1.23-3.39-1.43-5.12a109.75,109.75,0,0,1-.93-12.93A.09.09,0,0,1,415,199.73Z" style="fill:#37474f"></path><path d="M419.78,201c.14,2.85.46,5.7.7,8.55.12,1.4.22,2.81.3,4.21s.26,2.9.21,4.33c0,.1-.16.12-.17,0-.24-1.35-.27-2.76-.38-4.13s-.22-2.89-.3-4.33c-.16-2.88-.24-5.78-.5-8.66C419.64,200.85,419.78,200.86,419.78,201Z" style="fill:#37474f"></path><path d="M423.46,245.92c-.47-5-.9-10-1.47-15-.31-2.8-.57-5.62-1-8.39-.05-.27-.47-.19-.46.06.11,5,.71,10,1.19,15s.9,10,1.57,15c.37,2.82.78,5.63,1.11,8.46,0,.1.17.1.16,0C424.14,256,423.93,251,423.46,245.92Z" style="fill:#37474f"></path><path d="M461.69,345.19q-2.18-16.74-4.31-33.48c-2.82-22.33-5.5-44.68-8.19-67-1.51-12.55-3.08-25.08-4.55-37.63,0-.08-.13-.08-.12,0,2.09,22.51,4.34,45,7,67.45s5.49,44.69,8.58,67c1.74,12.53,3.43,25.07,5.65,37.52a.09.09,0,0,0,.18,0C464.73,367.69,463.16,356.45,461.69,345.19Z" style="fill:#37474f"></path><path d="M412.41,132.56c-14.62,5.34-36,11.32-44.08,11.61-9,.33-28.13-12.16-40.84-21.18-2.77-2,14.22-22.75,17.47-21.12,7.6,3.8,20.68,18.57,26.08,20.31,3.52,1.13,26.55-.59,38.68-.22C424.9,122.41,421.2,129.35,412.41,132.56Z" style="fill:#ffc4c0"></path><path d="M327.49,123c-2.52-2.1-15.28-13.85-17.6-17.48S301.65,91,304.24,88.92s4.59,1,4.59,1-1.77-5,1-6.83,5.74,3,5.74,3-1.45-5.27,1.48-6.9S322.14,83,322.14,83s-1.55-4.76,1.43-5.09c3.58-.4,5.43,8.7,8.29,12.51.65.86,14.42,16.59,14.42,16.59Z" style="fill:#ffc4c0"></path><path d="M322,82.49c1.38,6.68,3.14,9.37,7.8,14.21.09.09,0,.25-.13.16-5-4.32-7.69-7.37-8-14.32C321.6,82.2,321.88,82.17,322,82.49Z" style="fill:#263238"></path><path d="M315.5,85.57c2,6.81,3.92,9.74,8.43,15.17.06.08-.06.19-.13.12-4.87-5-7.49-8.06-8.63-15.14C315.12,85.4,315.4,85.25,315.5,85.57Z" style="fill:#263238"></path><path d="M309.07,90.18c2.45,6.46,4.37,9.76,9.43,14.47a.12.12,0,0,1-.16.19c-5.62-4.29-8.06-8.4-9.46-14.56C308.78,89.86,308.91,89.78,309.07,90.18Z" style="fill:#263238"></path><path d="M349.12,110.17s-.19-8.55-1.1-12.28-9.43-16.42-12.27-14.74c-3.67,2.17-.2,10.46,2,14.3,0,0-8.5,5-7.29,11.52S349.12,110.17,349.12,110.17Z" style="fill:#ffc4c0"></path><path d="M334.94,84.08c-1.92,4.4,1.34,9.25,3.22,13.13a.39.39,0,0,1-.29.58c-3.42,2.34-7.56,6.65-7.6,11a.1.1,0,0,1-.2,0c-.6-4.7,3.13-9.26,7-11.59-2-3.95-5.05-9-2.21-13.18C334.91,84,335,84.05,334.94,84.08Z" style="fill:#263238"></path><path d="M351.19,103.49l-21.87,23.05s24,18.47,34.64,19.52,25.31-4.29,45.58-11.81c19.56-7.26,11.79-12.76-1.17-12.93-10.73-.15-36.25.33-37.17.06S351.19,103.49,351.19,103.49Z" style="fill:#455a64"></path><path d="M353.92,106h-5.11l1.32-1.39h2.28Zm2.26,2.08h-9.35l-1.31,1.39H357.7Zm3.8,3.47H343.54l-1.32,1.39h19.29Zm3.84,3.47H340.25l-1.32,1.39h26.42Zm3.87,3.46H337l-1.33,1.4h33.67C368.83,119.48,368.29,119,367.69,118.48ZM414.93,122H333.68l-1.33,1.4h86.86A15.78,15.78,0,0,0,414.93,122Zm6.33,3.47H330.38l-1.06,1.12.37.28h91.56A2.17,2.17,0,0,0,421.26,125.42Zm-88.78,3.47,1.93,1.4h83.53a13.77,13.77,0,0,0,1.83-1.4Zm4.88,3.47,2.05,1.4h71.41c1.21-.47,2.31-.94,3.29-1.4Zm5.18,3.47,2.19,1.4h56.72l3.81-1.4Zm5.58,3.47c.81.48,1.63.95,2.44,1.4h41.06c1.32-.44,2.67-.91,4.06-1.4Zm6.35,3.47c1,.51,2.06,1,3,1.4h22.66c1.6-.41,3.27-.88,5-1.4Z" style="fill:#37474f"></path><path d="M337.06,129.52c3.4-3.31,6.56-6.81,9.75-10.3s6.27-7,9.22-10.7c.07-.09-.06-.18-.14-.11-3.39,3.31-6.65,6.75-9.82,10.25s-6.35,7-9.3,10.64C336.61,129.49,336.9,129.69,337.06,129.52Z" style="fill:#263238"></path><path d="M401.16,196.22c1,.9,58.41-5.64,58.67-6,.72-1.11-20.86-61.2-35.49-70.38-3.14-2-14.13-.32-15.57.44-1.64.87-5.53,9.65-7,16.6C399,150.74,400.27,195.43,401.16,196.22Z" style="fill:#455a64"></path><path d="M424.46,119.88H409.88c3.24-.79,11.76-1.78,14.46-.08ZM427,122H407.36c-.25.41-.51.88-.78,1.4h21.78C427.91,122.85,427.46,122.38,427,122Zm3.09,3.47H405.58c-.2.45-.4.92-.6,1.4h26.18C430.81,126.33,430.45,125.87,430.1,125.42Zm2.52,3.47H404.16c-.17.46-.34.93-.5,1.4h29.9C433.25,129.81,432.94,129.35,432.62,128.89Zm2.25,3.47H403c-.15.47-.29.94-.42,1.4h33.15C435.43,133.28,435.15,132.82,434.87,132.36Zm2.05,3.47H402c-.08.34-.15.68-.22,1,0,.13-.05.26-.08.39h36Zm1.92,3.47H401.39c-.06.45-.13.92-.18,1.4h38.37C439.34,140.23,439.09,139.76,438.84,139.3Zm1.82,3.47H401c0,.45-.09.92-.13,1.4h40.52C441.13,143.7,440.9,143.23,440.66,142.77Zm1.74,3.47H400.69c0,.46-.06.92-.09,1.4h42.48C442.85,147.17,442.63,146.7,442.4,146.24Zm1.66,3.47H400.48c0,.46-.05.93-.07,1.4h44.32C444.51,150.64,444.29,150.17,444.06,149.71Zm1.61,3.47H400.32c0,.46,0,.93,0,1.4h46C446.1,154.11,445.89,153.65,445.67,153.18Zm1.57,3.47h-47l0,1.4h47.68Zm1.52,3.47H400.14c0,.46,0,.92,0,1.39h49.22C449.15,161.05,449,160.59,448.76,160.12Zm1.46,3.47H400.09c0,.46,0,.93,0,1.39H450.8C450.61,164.52,450.42,164.05,450.22,163.59Zm1.43,3.47H400.07v1.39h52.15Zm1.4,3.47h-53c0,.47,0,.93,0,1.39h53.5C453.42,171.46,453.23,171,453.05,170.53ZM454.4,174H400.1c0,.47,0,.93,0,1.39h54.81Zm1.31,3.47H400.15l0,1.39h56.05C456.06,178.41,455.89,177.94,455.71,177.47Zm1.27,3.47H400.23c0,.47,0,.93,0,1.39h57.21Zm1.22,3.47H400.32c0,.48,0,.94.06,1.39h58.28Zm1.12,3.47H400.46c0,.48,0,.94.06,1.39H459.7C459.61,188.9,459.48,188.44,459.32,187.88Zm-58.69,3.47c0,.5.06,1,.09,1.39h38.61c4.43-.5,8.56-1,11.94-1.39Zm.26,3.47a4.61,4.61,0,0,0,.26,1.39h3.19c3.38-.2,9.11-.73,15.65-1.39Z" style="fill:#37474f"></path><path d="M403.21,130.28c-.53,1.82-1,3.65-1.43,5.5,0-.81.05-1.62.1-2.43,0-.14-.2-.13-.21,0-.08,1.12-.1,2.23-.08,3.34-.14.66-.26,1.33-.37,2a52.12,52.12,0,0,0-.62,8.46c0,.09.14.11.16,0,.83-5.62,1.47-11.29,2.55-16.87A.05.05,0,0,0,403.21,130.28Z" style="fill:#263238"></path><path d="M411.53,129c2.32.11,8.11-3.91,9.8-8.26.11-.3-.71-3.17-1.53-6.7-.49-2.15-1-4.56-1.28-6.78-.06-.46-13.51,5.24-13.51,5.24a35.9,35.9,0,0,1,2.48,8.37,5.83,5.83,0,0,1,0,.93v.15C407.46,123.69,408.4,128.83,411.53,129Z" style="fill:#ffc4c0"></path><path d="M407.51,121.92a8.41,8.41,0,0,0,1.45-.12c7.3-1.13,8.74-10.44,9-14.49-2.5.73-13,5.16-13,5.16a35.2,35.2,0,0,1,2.48,8.37,4.1,4.1,0,0,1,0,.92S407.5,121.86,407.51,121.92Z" style="fill:#263238"></path><path d="M416.5,89.2c2.82,4.39,4.18,19,1.63,23-3.7,5.88-11.69,8.59-17.18,3.7-5.32-4.74-6.76-23.8-3.73-27.68C401.69,82.54,412.34,82.7,416.5,89.2Z" style="fill:#ffc4c0"></path><path d="M405.35,101s.08,0,.09.08c.06,1,.3,2.1,1.23,2.34,0,0,0,.06,0,.06C405.56,103.47,405.26,102,405.35,101Z" style="fill:#263238"></path><path d="M406.13,99.93c1.57-.28,2,2.88.55,3.13S404.82,100.16,406.13,99.93Z" style="fill:#263238"></path><path d="M399.71,101.55s-.07.06-.07.1c.17,1,.2,2.12-.64,2.56,0,0,0,.07,0,.06C400.07,104,400,102.45,399.71,101.55Z" style="fill:#263238"></path><path d="M398.69,100.65c-1.59.1-1.28,3.27.2,3.18S400,100.57,398.69,100.65Z" style="fill:#263238"></path><path d="M407.11,98.16a11.42,11.42,0,0,1-1.31,0,2.13,2.13,0,0,1-1.33-.29.67.67,0,0,1-.15-.81,1.68,1.68,0,0,1,1.55-.69,2.48,2.48,0,0,1,1.67.57A.72.72,0,0,1,407.11,98.16Z" style="fill:#263238"></path><path d="M397,99.28a10,10,0,0,0,1.23-.45,2,2,0,0,0,1.17-.69.68.68,0,0,0-.11-.82,1.7,1.7,0,0,0-1.69-.15,2.42,2.42,0,0,0-1.4,1.07A.71.71,0,0,0,397,99.28Z" style="fill:#263238"></path><path d="M407.52,109.78c-.2.26-.39.61-.74.68a2.52,2.52,0,0,1-1.09-.1,0,0,0,0,0,0,.06,1.32,1.32,0,0,0,1.31.36,1,1,0,0,0,.65-1C407.63,109.75,407.55,109.74,407.52,109.78Z" style="fill:#263238"></path><path d="M406.09,107a3.38,3.38,0,0,1-2,1.79,4.32,4.32,0,0,1-1.19.22.88.88,0,0,1-.23,0h-.22a.26.26,0,0,1-.23-.19h0v-.1h0v-.09c-.13-.75-.21-1.9-.21-1.9-.26.17-1.57,1-1.61.6A51,51,0,0,1,400.28,97a.09.09,0,0,1,.18,0c.37,3.15.18,6.34.5,9.51a6.14,6.14,0,0,1,1.51-.7c.11,0,.12,2.24.21,2.57a.1.1,0,0,0,0,0,4.65,4.65,0,0,0,3.3-1.55C406.05,106.85,406.14,106.9,406.09,107Z" style="fill:#263238"></path><path d="M403.31,108.67a4,4,0,0,0,1.8.93,1.78,1.78,0,0,0,1.08-.13c.74-.35.63-1.06.37-1.64a4.14,4.14,0,0,0-.51-.87A5.15,5.15,0,0,1,403.31,108.67Z" style="fill:#263238"></path><path d="M405.11,109.6a1.78,1.78,0,0,0,1.08-.13c.74-.35.63-1.06.37-1.64A1.84,1.84,0,0,0,405.11,109.6Z" style="fill:#ff99ba"></path><path d="M395,93.61c5.61,3.09,12.28-3.08,12.28-3.08a5.74,5.74,0,0,0,6.16,3s1.92,8.81,4.26,8.56c3.58-.37,3.49-12.63,2.12-14.91s-4.46-2.59-4.46-2.59a5.84,5.84,0,0,0-2.78-3.3c-2.63-1.63-10.82,1.72-10.82,1.72a7.86,7.86,0,0,0-2.44-2.7,2.22,2.22,0,0,0-3.16.61,5.13,5.13,0,0,1,1.07,2.11c.68,2.56-1.45,2.77-1.66.4a3.62,3.62,0,0,1,.59-2.51c-1.2-1.45-3-1.78-3.93-.85C390.51,81.81,390.35,91,395,93.61Z" style="fill:#263238"></path><path d="M416.31,101.35s2-5.34,4.33-4.74,1.66,7.75-.51,9.27a2.53,2.53,0,0,1-3.62-.46Z" style="fill:#ffc4c0"></path><path d="M420.4,98.66s.05,0,0,.06a6.41,6.41,0,0,0-2.19,4.7,1.4,1.4,0,0,1,1.93-.9s0,.1,0,.1a1.57,1.57,0,0,0-1.52,1,8.21,8.21,0,0,0-.44,1.54c0,.18-.33.17-.32,0v0C417.25,102.91,418.14,99.47,420.4,98.66Z" style="fill:#263238"></path><path d="M429,124.29c19.77,20.58,48.61,72.71,52.17,80.19,2.42,5.07-24.11,18.45-25.23,14.76-1.45-4.73-24.55-63.07-30.69-85.08C421.86,122,424.91,120,429,124.29Z" style="fill:#ffc4c0"></path><path d="M454.69,215.75c.92,2.53,4.07,13.26,6.27,14.6s13.77,1.05,19.59,1.05,7-1.62,6.88-3.63-12.32-2.39-12.32-2.39,16.33,4.68,20.44,5.45,13.57,3.15,14.94-.26c.61-1.53-2-3.09-2-3.09s4,1.16,4.61-.81c.71-2.25-2.44-3.49-2.44-3.49s2.48.5,2.54-1.33c.12-4.09-15.41-6.1-15.41-6.1s11.89,5.79,12.28,2.45c.53-4.62-23.85-9.69-26.38-11.71a17.24,17.24,0,0,1-4.07-5Z" style="fill:#ffc4c0"></path><path d="M487.35,228.79a1.8,1.8,0,0,0-.56-1.56,4.89,4.89,0,0,0-1.42-.92,19.48,19.48,0,0,0-3.34-1.09c-2.29-.58-4.65-1-7-1.6a28.59,28.59,0,0,1,7.19.81,13.56,13.56,0,0,1,3.44,1.31A4.71,4.71,0,0,1,487.1,227,1.89,1.89,0,0,1,487.35,228.79Z" style="fill:#263238"></path><path d="M508.51,227.48c-1.68-.41-3.33-.88-5-1.36s-3.29-1-4.94-1.48l-4.92-1.54c-1.64-.52-3.28-1-4.93-1.52a38.36,38.36,0,0,1,5.1.91c1.68.39,3.34.87,5,1.37s3.29,1,4.9,1.67S506.94,226.75,508.51,227.48Z" style="fill:#263238"></path><path d="M492.67,217.5a33.77,33.77,0,0,1,4.71.65,45.85,45.85,0,0,1,4.61,1.19,42,42,0,0,1,4.46,1.67,33.74,33.74,0,0,1,4.23,2.17c-1.5-.51-3-1.09-4.46-1.59s-3-1-4.47-1.47-3-.91-4.52-1.36S494.2,217.92,492.67,217.5Z" style="fill:#263238"></path><path d="M495.07,213.6a29.5,29.5,0,0,1,7.5,1.59,28.94,28.94,0,0,1,6.9,3.34c-2.41-.86-4.76-1.77-7.16-2.57S497.51,214.39,495.07,213.6Z" style="fill:#263238"></path><path d="M425.49,139.86c4.7,20.18,27.12,75.37,27.12,75.37l20.15-9.71,10.16-4.91s-34.6-54.06-48.74-71.74c-1.1-1.36-2.09-2.53-3-3.5C422.41,116,421.88,124.31,425.49,139.86Z" style="fill:#455a64"></path><path d="M429.1,123.35h-5.43a3.21,3.21,0,0,1,.68-1.4h2.84A11.67,11.67,0,0,1,429.1,123.35Zm2.12,2.07h-7.81c0,.44,0,.9,0,1.4h9.08C432,126.31,431.62,125.85,431.22,125.42Zm3,3.47H423.54c0,.44.09.91.15,1.4H435.3Zm2.69,3.47H424c.07.45.15.92.23,1.4h13.71Zm2.57,3.47H424.62c.09.46.18.92.29,1.4h15.57ZM442,139.3H425.36c0,.18.09.37.13.56s.13.55.2.84H443Zm2.47,3.47H426.22c.12.45.25.92.39,1.4h18.8Zm2.43,3.47H427.21c.13.46.27.93.42,1.4h20.2Zm2.39,3.47h-21c.14.46.29.92.44,1.4h21.52Zm2.38,3.47H429.37c.15.46.3.93.46,1.4H452.6Zm2.36,3.47H430.52c.15.46.31.93.47,1.4h24Zm2.35,3.47H431.7l.48,1.39h25.11C457,161.05,456.66,160.58,456.35,160.12Zm2.33,3.47H432.91c.16.46.32.92.49,1.39h26.21Zm2.32,3.47H434.14c.17.46.33.93.5,1.39h27.28Zm2.3,3.47H435.39l.51,1.39h28.32Zm2.3,3.47H436.66l.51,1.39h29.35Zm2.29,3.47H437.94l.52,1.39H468.8Zm2.27,3.47H439.24c.17.47.35.93.52,1.39h31.32Zm2.28,3.47H440.55c.17.47.35.93.52,1.39h32.27Zm2.26,3.47H441.86l.54,1.39h33.2Zm2.25,3.47H443.19c.19.47.36.93.54,1.39h34.13Zm2.25,3.47H444.54l.54,1.39h35Zm2.25,3.47H445.88c.19.47.37.94.55,1.39h35.9Zm-34.21,3.47c.19.47.37.94.55,1.39h29.88l2.88-1.39Zm1.37,3.47.55,1.39h21.32l2.28-1.1.6-.29ZM450,208.7c.19.49.38,1,.56,1.39h12.73l2.88-1.39Zm1.38,3.47c.22.52.4,1,.57,1.39h4.14l2.88-1.39Z" style="fill:#37474f"></path><path d="M450.94,209.21c11.85-6.88,25.35-12.31,27.64-13.43.11-.05.18.13.07.18-2.3,1-17.06,8.86-27.64,13.44C450.89,209.46,450.82,209.28,450.94,209.21Z" style="fill:#263238"></path><path d="M436.34,170.87q-3.78-10.76-7.66-21.49c-1.47-4-3-8.11-4.59-12.12,0-.06-.12,0-.1,0,.82,2.86,1.7,5.69,2.6,8.52l-.69-1.26c-.58-1.09-1.12-2.2-1.72-3.29a.08.08,0,0,0-.14.07,30.63,30.63,0,0,0,1.54,3.35c.44.85.93,1.69,1.45,2.51,1.28,4,2.63,8,4,11.93q3.69,10.78,7.59,21.51c1.48,4.06,3,8.1,4.76,12.06a.15.15,0,0,0,.28-.09C441.56,185.25,438.86,178.08,436.34,170.87Z" style="fill:#263238"></path></g><g id="freepik--Table--inject-21"><polygon points="558.38 242.33 558.05 266.3 554.41 427.51 550.32 427.51 546.67 266.3 546.34 242.33 558.38 242.33" style="fill:#c7c7c7"></polygon><polygon points="558.38 242.33 558.05 266.3 546.67 266.3 546.34 242.33 558.38 242.33" style="fill:#a6a6a6"></polygon><polygon points="202.26 242.33 201.93 266.3 198.29 427.51 194.2 427.51 190.55 266.3 190.22 242.33 202.26 242.33" style="fill:#c7c7c7"></polygon><polygon points="190.22 242.33 202.26 242.33 201.93 266.3 190.55 266.3 190.22 242.33" style="fill:#a6a6a6"></polygon><rect x="164.38" y="231.52" width="421.25" height="16.96" style="fill:#c7c7c7"></rect></g><g id="freepik--Backpack--inject-21"><path d="M500.48,170.63l-14,11.66,7.16,8.19,13.86-12.74.3-6.66Zm5.53,3.18a.86.86,0,0,1-1.18-.25.85.85,0,0,1,1.42-.94A.87.87,0,0,1,506,173.81Z" style="fill:#ebebeb"></path><path d="M506,173.39a.51.51,0,0,1-.44-.26.52.52,0,0,1,.08-.57c.32-.33,7.78-8.14,11.89-8.21a2.4,2.4,0,0,1,1.83.66,2.24,2.24,0,0,1,.73,2.37c-.89,2.78-7.68,5-14,6Zm11.6-8.06h0c-2.65,0-7.5,4.26-10.12,6.82,6.3-1.16,11.13-3.22,11.72-5.07.09-.29.14-.75-.48-1.36A1.47,1.47,0,0,0,517.56,165.33Z" style="fill:#263238"></path><path d="M551.33,155H546.4v-7.21a27.44,27.44,0,0,0-6.36-3,27.87,27.87,0,0,0-6.22,3V155h-4.93v-8.2c0-3.4,9.65-6.89,11.15-6.89s11.29,3.39,11.29,6.89Zm-18-6.78Z" style="fill:#FFC727"></path><path d="M571.69,231.52H508.38s-.08-24.3,1-39.28,6.47-40.6,30.61-40.6,29.5,25.62,30.62,40.6S571.69,231.52,571.69,231.52Z" style="fill:#37474f"></path><rect x="516.29" y="198.44" width="47.49" height="27.6" style="fill:#263238"></rect><rect x="516.29" y="205.33" width="47.49" height="0.99" style="fill:#37474f"></rect><rect x="534.97" y="168.32" width="10.14" height="10.14" transform="translate(35.57 432.65) rotate(-45)" style="fill:#a6a6a6"></rect></g><g id="freepik--Guitar--inject-21"><path d="M449,216.29,438.18,234l10.7,6.21,10.29-18.77-2.11-7.28Zm7.12,1.4a1,1,0,1,1-.18-1.37A1,1,0,0,1,456.16,217.69Z" style="fill:#ebebeb"></path><path d="M456,217.26a.56.56,0,0,1-.56-.13.55.55,0,0,1-.13-.64c.22-.47,5.41-11.59,9.82-13.18a2.75,2.75,0,0,1,2.2.05,2.52,2.52,0,0,1,1.65,2.29c.06,3.32-6.43,8.2-12.9,11.57A.2.2,0,0,1,456,217.26Zm9.56-12.91-.05,0c-2.84,1-6.53,7.32-8.42,11,6.36-3.55,10.81-7.53,10.77-9.74,0-.35-.12-.87-1-1.29A1.6,1.6,0,0,0,465.51,204.35Z" style="fill:#263238"></path><path d="M482.39,335.39c-1.22,3.28-7.39,4.69-11.13,2S468.77,326.54,468,326s-9.79,8.21-9.37,16.14c.64,11.82,8.58,17.48,9.77,24,2.35,12.74-15.33,32.22-7.8,52.82S491.85,441,506.8,438.22s37.19-12,37.85-30.91c.63-18.35-13.47-26.18-16.58-36.13-2.84-9.06,1.49-17.5-2.39-31.11-2.72-9.54-11.1-16.61-12.58-15.14-.74.74,2.48,12.6-4.63,14.54-5.79,1.58-10.65-6.92-10.65-6.92Z" style="fill:#FFC727"></path><path d="M485,337.29c-6.91,3.77-8.57,24-7.19,37.11s7.71,15.39,15.19,13.89,16.61-4.05,21.1-3.07c6.81,1.48,15.82,10.47,21.07,7.84,6-3-7.85-14.3-9.49-22.78-1.77-9.11,1.15-19.31-1-27.72-2.63-10.32-9-15.63-9.75-15.25s1.76,12.36-6.49,13.88c-6.54,1.2-10.22-5.82-12-6.43S487.6,335.87,485,337.29Z" style="fill:#ebebeb"></path><path d="M535.17,393.06c-4.65,2.34-12.27-4.48-18.69-7.08,0,0,1.58-9.72,10.94-11.18C531.46,382.36,540.15,390.56,535.17,393.06Z" style="fill:#c7c7c7"></path><path d="M527.22,383.32a1.85,1.85,0,1,1-2.15-1.48A1.85,1.85,0,0,1,527.22,383.32Z" style="fill:#263238"></path><path d="M519.78,341.07a1.85,1.85,0,1,1-2.15-1.48A1.86,1.86,0,0,1,519.78,341.07Z" style="fill:#c7c7c7"></path><path d="M532.94,388.19a1.85,1.85,0,1,1-2.15-1.48A1.84,1.84,0,0,1,532.94,388.19Z" style="fill:#263238"></path><polygon points="466.03 228.04 475.14 226.37 501.12 347.57 484.66 350.6 466.03 228.04" style="fill:#a6a6a6"></polygon><rect x="491.46" y="391.48" width="19.41" height="5.12" transform="translate(-63.03 97.19) rotate(-10.42)" style="fill:#fff"></rect><rect x="488.53" y="374.59" width="10.07" height="3.2" transform="translate(-59.92 95.51) rotate(-10.42)" style="fill:#263238"></rect><rect x="494.98" y="376.65" width="10.07" height="3.2" transform="translate(-60.19 96.72) rotate(-10.42)" style="fill:#263238"></rect><polygon points="462.64 228.67 478.19 225.81 469.51 193.85 465.36 197.32 462.64 228.67" style="fill:#FFC727"></polygon><polygon points="494.12 394.36 490.7 374.09 487.35 353.81 480.78 313.24 472.52 262.51 469.38 242.2 466.32 221.88 469.75 242.14 473.09 262.42 481.53 313.12 487.92 353.72 491.06 374.03 494.12 394.36" style="fill:#263238"></polygon><polygon points="506.97 391.99 502.74 371.88 498.58 351.76 490.39 311.48 480.51 261.05 476.56 240.89 472.69 220.7 476.93 240.81 481.08 260.94 491.13 311.33 499.15 351.64 503.1 371.81 506.97 391.99" style="fill:#263238"></polygon><polygon points="498.4 393.57 494.68 373.36 491.04 353.14 483.88 312.67 475.03 262.05 471.6 241.79 468.25 221.52 471.96 241.73 475.61 261.95 484.63 312.54 491.62 353.04 495.05 373.3 498.4 393.57" style="fill:#263238"></polygon><polygon points="502.69 392.78 498.71 372.62 494.81 352.45 487.13 312.08 477.76 261.55 474.07 241.34 470.46 221.11 474.44 241.27 478.34 261.45 487.88 311.94 495.38 352.34 499.07 372.55 502.69 392.78" style="fill:#263238"></polygon></g><g id="freepik--Bike--inject-21"><path d="M196.3,264.25l-9.59,18.39,11.12,5.43,8.93-19.45-2.62-7.12Zm7.19.89a1,1,0,1,1-.27-1.35A1,1,0,0,1,203.49,265.14Z" style="fill:#ebebeb"></path><path d="M203.26,264.72a.58.58,0,0,1-.58-.08.56.56,0,0,1-.16-.63c.18-.49,4.57-11.95,8.85-13.84a2.74,2.74,0,0,1,2.2-.11,2.53,2.53,0,0,1,1.81,2.16c.3,3.31-5.84,8.64-12,12.46Zm8.61-13.55-.05,0c-2.75,1.22-6,7.77-7.61,11.61,6.1-4,10.25-8.28,10.06-10.48,0-.34-.18-.85-1.11-1.21A1.63,1.63,0,0,0,211.87,251.17Z" style="fill:#263238"></path><polygon points="344.22 262.16 333.1 286.98 327.41 286.98 338.52 262.16 344.22 262.16" style="fill:#37474f"></polygon><path d="M212.73,272.67l5.43-17.3,2.72,3.57c-4.43,0-9.14,1.27-12-2.46-3.34-4.28-6.39-8.83-9.57-13.23-2.13-2.94,2.76-5.76,4.87-2.84l10.34,14.28L212,253.3h8.84a2.85,2.85,0,0,1,2.72,3.57l-5.43,17.3c-1.08,3.45-6.53,2-5.44-1.5Z" style="fill:#37474f"></path><path d="M278.51,350.85q5.42,15.24,10.84,30.47c1.22,3.42-4.23,4.9-5.44,1.49q-5.42-15.22-10.84-30.46c-1.22-3.42,4.23-4.9,5.44-1.5Z" style="fill:#c7c7c7"></path><rect x="260.93" y="341.93" width="24.93" height="10.92" transform="translate(546.79 694.77) rotate(180)" style="fill:#263238"></rect><path d="M210.46,295.67l71.12,70.12,10.09,10-4.43.57c12.33-28.89,42.21-94.22,44-98.39l6,.15c-12.33,28.89-27.45,59.68-39.78,88.57q-2.67,6.25-5.35,12.52c-.73,1.72-3.27,1.71-4.42.57l-71.12-70.13-10.1-9.95c-2.58-2.56,1.4-6.54,4-4Z" style="fill:#FFC727"></path><path d="M218.67,272.46l-13.41,46.1-7.45,25.63c-1.42,4.87-2.95,6.57-6.71,10.2L170.7,374.1c-2.61,2.52-6.6-1.46-4-4L184,353.44c2.55-2.45,5.06-4.95,7.64-7.37.43-.41-.65,1.92-.34.44.18-.86.5-1.72.74-2.56l16-55q2.63-9,5.24-18c1-3.48,6.46-2,5.44,1.5Z" style="fill:#FFC727"></path><path d="M289.68,374.92h94.88l-2.43,4.25-45.5-79.75q-3.27-5.71-6.52-11.43l2.43,1.4H213.73c-3.63,0-3.63-5.64,0-5.64H332.54a2.85,2.85,0,0,1,2.44,1.4q22.74,39.87,45.5,79.74,3.25,5.72,6.52,11.43a2.84,2.84,0,0,1-2.44,4.24H289.68c-3.63,0-3.64-5.64,0-5.64Z" style="fill:#FFC727"></path><path d="M405.75,302.64q-9.22,37.94-18.47,75.85c-.86,3.53-6.3,2-5.44-1.5l18.48-75.85c.85-3.52,6.29-2,5.43,1.5Z" style="fill:#FFC727"></path><path d="M341.94,299.07h82.53c3.62,0,3.63,5.64,0,5.64H341.94c-3.63,0-3.64-5.64,0-5.64Z" style="fill:#FFC727"></path><path d="M164.56,316.62c-.05,4.82.13,9.63.49,14.42.21,2.4.5,4.79.68,7.19s.25,4.81.31,7.21c.09,4.82.31,9.62.59,14.42s.73,9.6,1.33,14.38h.1c0-4.82-.13-9.62-.36-14.43s-.64-9.6-1.11-14.39c-.23-2.4-.43-4.79-.54-7.2s-.1-4.81-.17-7.21c-.21-4.81-.6-9.61-1.22-14.39Z" style="fill:#a6a6a6"></path><path d="M174.62,316.89c-.89,4.74-1.54,9.51-2,14.3-.2,2.39-.34,4.8-.58,7.19s-.58,4.78-.94,7.16c-.74,4.75-1.36,9.52-1.92,14.3s-1,9.58-1.19,14.39h.1c.87-4.74,1.54-9.5,2.15-14.28s1-9.56,1.4-14.36c.2-2.4.42-4.79.73-7.18s.73-4.76,1.08-7.14c.63-4.77,1.08-9.56,1.3-14.37Z" style="fill:#a6a6a6"></path><path d="M184.48,318.91c-1.7,4.51-3.17,9.1-4.48,13.73-.62,2.32-1.17,4.67-1.82,7s-1.4,4.6-2.17,6.88c-1.56,4.56-3,9.15-4.38,13.76s-2.59,9.26-3.66,14l.09,0c1.68-4.52,3.17-9.09,4.59-13.69s2.69-9.24,3.88-13.9c.61-2.33,1.24-4.65,2-7s1.55-4.55,2.31-6.84c1.44-4.59,2.72-9.22,3.77-13.93Z" style="fill:#a6a6a6"></path><path d="M193.84,322.61c-2.46,4.15-4.71,8.41-6.8,12.74-1,2.18-2,4.4-3,6.56s-2.18,4.29-3.34,6.4c-2.32,4.22-4.54,8.49-6.7,12.79s-4.16,8.67-6,13.12l.09,0c2.44-4.16,4.7-8.41,6.9-12.68s4.25-8.64,6.23-13c1-2.19,2-4.36,3.14-6.5s2.31-4.22,3.46-6.34c2.22-4.27,4.28-8.61,6.14-13.06Z" style="fill:#a6a6a6"></path><path d="M202.41,327.88c-3.14,3.66-6.09,7.46-8.9,11.36-1.38,2-2.7,4-4.1,5.95s-2.89,3.84-4.4,5.72c-3,3.75-5.94,7.57-8.82,11.43s-5.6,7.82-8.22,11.87l.08.06c3.13-3.67,6.09-7.47,9-11.3s5.68-7.76,8.4-11.73c1.37-2,2.76-3.95,4.22-5.86s3-3.75,4.5-5.64c2.93-3.82,5.72-7.74,8.32-11.8Z" style="fill:#a6a6a6"></path><path d="M209.94,334.56c-3.73,3.05-7.3,6.29-10.75,9.64-1.69,1.71-3.34,3.46-5.06,5.14s-3.52,3.29-5.33,4.88c-3.62,3.16-7.17,6.42-10.66,9.72s-6.88,6.73-10.16,10.26l.07.07c3.71-3.07,7.29-6.29,10.82-9.56s6.94-6.65,10.31-10.1c1.69-1.71,3.4-3.4,5.17-5s3.62-3.17,5.42-4.77c3.54-3.25,7-6.63,10.23-10.18Z" style="fill:#a6a6a6"></path><path d="M216.19,342.44c-4.2,2.36-8.28,4.93-12.25,7.63-2,1.39-3.9,2.83-5.89,4.18s-4,2.63-6.09,3.88c-4.12,2.49-8.17,5.08-12.19,7.72s-7.94,5.43-11.78,8.35l0,.08c4.19-2.38,8.27-4.93,12.32-7.54s8-5.35,11.91-8.15c2-1.4,3.94-2.77,6-4.06s4.12-2.5,6.17-3.76c4-2.59,8-5.32,11.84-8.25Z" style="fill:#a6a6a6"></path><path d="M221,351.29c-4.55,1.6-9,3.41-13.39,5.39-2.18,1-4.33,2.11-6.52,3.09s-4.43,1.89-6.67,2.76c-4.49,1.74-8.94,3.59-13.35,5.49s-8.77,4-13.06,6.17l0,.09c4.55-1.61,9-3.42,13.44-5.28s8.8-3.88,13.14-6c2.18-1,4.36-2,6.58-3s4.49-1.74,6.73-2.63c4.44-1.84,8.82-3.84,13.1-6.06Z" style="fill:#a6a6a6"></path><path d="M224.16,360.83c-4.76.79-9.46,1.8-14.12,3-2.33.62-4.63,1.32-7,1.91s-4.68,1.09-7,1.56c-4.72.93-9.42,2-14.1,3.09s-9.32,2.39-13.93,3.81l0,.1c4.75-.81,9.46-1.81,14.15-2.87s9.34-2.3,14-3.59c2.32-.64,4.64-1.25,7-1.78s4.72-.94,7.08-1.42c4.69-1.05,9.35-2.26,14-3.7Z" style="fill:#a6a6a6"></path><path d="M225.63,370.79c-4.82-.06-9.63.13-14.42.48-2.4.21-4.79.5-7.19.68s-4.8.26-7.21.31c-4.81.1-9.62.31-14.42.6s-9.6.73-14.38,1.33v.1c4.82,0,9.63-.14,14.43-.37s9.6-.64,14.39-1.11c2.4-.23,4.8-.42,7.2-.54s4.81-.1,7.22-.17c4.8-.21,9.6-.59,14.38-1.21Z" style="fill:#a6a6a6"></path><path d="M225.36,380.85c-4.74-.9-9.51-1.55-14.29-2-2.4-.21-4.81-.34-7.2-.58s-4.78-.58-7.16-.95c-4.75-.74-9.52-1.36-14.3-1.92s-9.58-.94-14.39-1.18v.1c4.74.87,9.5,1.54,14.28,2.14s9.56,1,14.36,1.41c2.4.19,4.8.41,7.18.72s4.76.74,7.14,1.08c4.77.63,9.56,1.09,14.38,1.3Z" style="fill:#a6a6a6"></path><path d="M223.34,390.7c-4.51-1.7-9.09-3.17-13.72-4.48-2.33-.62-4.68-1.16-7-1.82s-4.6-1.4-6.88-2.17c-4.56-1.56-9.15-3-13.76-4.38s-9.26-2.59-14-3.66l0,.1c4.52,1.68,9.09,3.16,13.69,4.59s9.24,2.68,13.9,3.88c2.33.6,4.65,1.24,6.95,1.95s4.55,1.55,6.84,2.31c4.59,1.45,9.22,2.73,13.93,3.78Z" style="fill:#a6a6a6"></path><path d="M219.64,400.06c-4.15-2.46-8.41-4.7-12.74-6.79-2.18-1-4.39-2-6.56-3s-4.29-2.18-6.4-3.33c-4.22-2.33-8.49-4.54-12.79-6.7s-8.67-4.17-13.11-6l0,.09c4.16,2.44,8.41,4.7,12.69,6.9s8.63,4.25,13,6.24c2.19,1,4.37,2,6.5,3.13s4.22,2.32,6.34,3.46c4.27,2.22,8.61,4.29,13.06,6.14Z" style="fill:#a6a6a6"></path><path d="M214.37,408.63c-3.66-3.14-7.46-6.09-11.36-8.9-2-1.38-4-2.7-5.94-4.1s-3.85-2.89-5.73-4.39c-3.75-3-7.57-5.95-11.43-8.82s-7.82-5.61-11.87-8.22l-.06.08c3.68,3.12,7.47,6.08,11.3,9S187,389,191,391.67c2,1.37,4,2.76,5.86,4.22s3.75,3,5.64,4.51c3.82,2.92,7.74,5.71,11.8,8.31Z" style="fill:#a6a6a6"></path><path d="M207.69,416.16c-3.05-3.73-6.28-7.29-9.64-10.74-1.7-1.7-3.46-3.35-5.14-5.07s-3.29-3.52-4.87-5.32c-3.17-3.63-6.43-7.17-9.73-10.67s-6.73-6.88-10.26-10.16l-.07.07c3.07,3.72,6.29,7.29,9.56,10.82s6.66,7,10.1,10.31c1.71,1.69,3.4,3.4,5,5.17s3.17,3.62,4.77,5.42c3.26,3.55,6.63,7,10.18,10.24Z" style="fill:#a6a6a6"></path><path d="M199.81,422.41c-2.36-4.2-4.93-8.27-7.63-12.25-1.38-2-2.83-3.9-4.18-5.88s-2.63-4-3.88-6.09c-2.49-4.12-5.08-8.18-7.72-12.2s-5.43-7.94-8.34-11.78l-.09.06c2.38,4.19,4.93,8.27,7.54,12.31s5.35,8,8.15,11.91c1.4,2,2.77,3.94,4.07,6s2.49,4.12,3.75,6.17c2.59,4.05,5.32,8,8.25,11.85Z" style="fill:#a6a6a6"></path><path d="M191,427.2c-1.59-4.55-3.41-9-5.39-13.39-1-2.18-2.1-4.33-3.09-6.52s-1.89-4.43-2.76-6.67q-2.61-6.74-5.49-13.35c-2-4.39-4-8.76-6.17-13l-.09,0c1.62,4.54,3.42,9,5.28,13.44s3.88,8.8,6,13.14c1,2.17,2,4.36,3,6.58s1.74,4.49,2.63,6.72c1.84,4.45,3.84,8.82,6.06,13.1Z" style="fill:#a6a6a6"></path><path d="M181.42,430.38c-.79-4.75-1.8-9.46-3-14.12-.63-2.32-1.33-4.63-1.92-7s-1.09-4.69-1.56-7.05c-.93-4.72-2-9.42-3.09-14.1s-2.39-9.32-3.81-13.92l-.09,0c.8,4.75,1.8,9.46,2.86,14.15s2.3,9.34,3.6,14c.63,2.32,1.25,4.65,1.77,7s.94,4.73,1.43,7.08c1,4.7,2.25,9.35,3.69,14Z" style="fill:#a6a6a6"></path><path d="M171.46,431.86c.06-4.82-.13-9.63-.48-14.43-.21-2.4-.5-4.79-.68-7.19s-.26-4.8-.31-7.21c-.1-4.81-.31-9.62-.59-14.42s-.74-9.59-1.34-14.38H168c0,4.82.14,9.63.37,14.43s.64,9.6,1.11,14.4c.23,2.39.42,4.79.54,7.19s.1,4.81.17,7.22c.21,4.81.59,9.6,1.21,14.38Z" style="fill:#a6a6a6"></path><path d="M161.41,431.58c.89-4.74,1.54-9.5,2-14.29.21-2.4.34-4.8.58-7.2s.58-4.77,1-7.15c.74-4.76,1.36-9.53,1.92-14.31s.94-9.57,1.18-14.39H168c-.87,4.74-1.54,9.51-2.14,14.28s-1,9.57-1.41,14.37c-.19,2.39-.41,4.79-.72,7.18s-.73,4.75-1.08,7.13c-.63,4.77-1.08,9.56-1.3,14.38Z" style="fill:#a6a6a6"></path><path d="M151.55,429.56c1.7-4.51,3.17-9.09,4.48-13.72.62-2.33,1.17-4.67,1.82-7s1.4-4.6,2.17-6.88c1.56-4.55,3-9.14,4.38-13.75s2.59-9.27,3.66-14l-.09,0c-1.68,4.52-3.17,9.1-4.6,13.69s-2.68,9.24-3.87,13.9c-.61,2.33-1.25,4.65-2,6.95s-1.55,4.56-2.31,6.84c-1.44,4.59-2.72,9.23-3.78,13.93Z" style="fill:#a6a6a6"></path><path d="M142.19,425.86c2.46-4.15,4.7-8.4,6.8-12.73,1-2.19,2-4.4,3-6.57s2.18-4.29,3.34-6.4q3.48-6.32,6.69-12.78c2.11-4.33,4.17-8.68,6-13.12l-.09,0c-2.44,4.15-4.7,8.4-6.9,12.68s-4.25,8.63-6.23,13c-1,2.19-2,4.36-3.14,6.5s-2.32,4.22-3.46,6.33C146,417,144,421.37,142.1,425.82Z" style="fill:#a6a6a6"></path><path d="M133.62,420.6c3.14-3.66,6.09-7.47,8.9-11.37,1.38-2,2.7-4,4.1-5.94s2.89-3.85,4.4-5.73c3-3.74,5.94-7.56,8.81-11.42s5.61-7.82,8.22-11.87l-.08-.06c-3.12,3.67-6.08,7.46-9,11.29s-5.69,7.76-8.4,11.74c-1.37,2-2.76,3.94-4.22,5.86s-3,3.75-4.51,5.63c-2.92,3.82-5.71,7.74-8.31,11.81Z" style="fill:#a6a6a6"></path><path d="M126.09,413.92c3.73-3.06,7.3-6.29,10.74-9.65,1.7-1.7,3.35-3.46,5.07-5.14s3.52-3.28,5.32-4.87c3.63-3.17,7.17-6.42,10.67-9.72s6.88-6.73,10.16-10.27l-.07-.07c-3.71,3.07-7.29,6.29-10.82,9.56s-6.95,6.66-10.31,10.1c-1.69,1.72-3.4,3.41-5.17,5s-3.62,3.17-5.42,4.77c-3.54,3.25-7,6.63-10.24,10.18Z" style="fill:#a6a6a6"></path><path d="M119.84,406c4.2-2.37,8.27-4.93,12.25-7.64,2-1.38,3.9-2.83,5.89-4.18s4-2.62,6.08-3.88c4.12-2.48,8.18-5.07,12.2-7.72s7.94-5.43,11.78-8.34l0-.08c-4.19,2.38-8.28,4.93-12.32,7.53s-8,5.35-11.91,8.16c-2,1.39-3.94,2.76-6,4.06s-4.12,2.49-6.17,3.76c-4,2.58-8,5.31-11.85,8.24Z" style="fill:#a6a6a6"></path><path d="M115.05,397.19c4.55-1.6,9-3.42,13.39-5.39,2.18-1,4.33-2.11,6.52-3.1s4.43-1.88,6.67-2.76c4.49-1.73,8.93-3.58,13.35-5.49s8.76-4,13.05-6.17l0-.09c-4.54,1.62-9,3.42-13.43,5.28s-8.81,3.89-13.15,6c-2.17,1-4.36,2-6.58,3s-4.48,1.74-6.72,2.63c-4.44,1.85-8.82,3.85-13.1,6.07Z" style="fill:#a6a6a6"></path><path d="M111.87,387.64c4.76-.78,9.46-1.8,14.12-3,2.33-.63,4.63-1.33,7-1.92s4.69-1.09,7.05-1.56c4.72-.93,9.42-2,14.1-3.08s9.32-2.39,13.93-3.81l0-.1c-4.75.8-9.46,1.8-14.15,2.87s-9.34,2.29-14,3.59c-2.32.64-4.65,1.25-7,1.78s-4.72.93-7.08,1.42c-4.7,1-9.35,2.25-14,3.69Z" style="fill:#a6a6a6"></path><path d="M110.39,377.69c4.83.05,9.63-.13,14.43-.49,2.4-.21,4.79-.5,7.19-.68s4.8-.25,7.21-.31c4.81-.09,9.62-.31,14.42-.59s9.59-.73,14.38-1.33v-.1c-4.82,0-9.63.13-14.43.37s-9.6.63-14.39,1.1c-2.4.23-4.8.43-7.2.54s-4.81.1-7.22.17c-4.8.21-9.6.6-14.38,1.22Z" style="fill:#a6a6a6"></path><path d="M110.67,367.63c4.74.89,9.51,1.54,14.29,2,2.4.2,4.81.34,7.2.58s4.77.58,7.15.94c4.76.74,9.53,1.37,14.31,1.92s9.57.95,14.39,1.19v-.1c-4.74-.87-9.51-1.54-14.28-2.15s-9.56-1-14.36-1.4c-2.4-.2-4.8-.42-7.18-.72s-4.76-.74-7.14-1.09c-4.77-.62-9.56-1.08-14.38-1.3Z" style="fill:#a6a6a6"></path><path d="M112.69,357.77c4.51,1.7,9.09,3.17,13.72,4.48,2.33.62,4.67,1.17,7,1.82s4.6,1.4,6.88,2.17c4.56,1.56,9.15,3,13.75,4.38s9.27,2.59,14,3.67l0-.1c-4.52-1.68-9.1-3.17-13.69-4.59s-9.24-2.69-13.9-3.88c-2.33-.61-4.65-1.24-6.95-2s-4.56-1.55-6.84-2.31c-4.59-1.44-9.23-2.72-13.93-3.77Z" style="fill:#a6a6a6"></path><path d="M116.39,348.42c4.15,2.45,8.4,4.7,12.73,6.79,2.19,1,4.4,2,6.57,3s4.29,2.17,6.4,3.33c4.21,2.32,8.48,4.54,12.78,6.7s8.68,4.16,13.12,6l0-.09c-4.16-2.44-8.41-4.7-12.69-6.9s-8.63-4.24-13-6.23c-2.19-1-4.37-2-6.51-3.13s-4.21-2.32-6.33-3.46c-4.27-2.22-8.62-4.29-13.07-6.14Z" style="fill:#a6a6a6"></path><path d="M121.66,339.84c3.66,3.14,7.46,6.09,11.36,8.91,2,1.37,4,2.69,5.94,4.1s3.85,2.89,5.73,4.39c3.74,3,7.56,5.95,11.42,8.82s7.82,5.6,11.87,8.22l.06-.08c-3.67-3.13-7.46-6.09-11.29-9S149,359.52,145,356.8c-2-1.37-3.94-2.76-5.85-4.21s-3.76-3-5.64-4.51c-3.82-2.93-7.74-5.72-11.8-8.32Z" style="fill:#a6a6a6"></path><path d="M128.33,332.32c3.06,3.72,6.29,7.29,9.65,10.74,1.7,1.7,3.46,3.34,5.14,5.07s3.28,3.51,4.87,5.32q4.75,5.43,9.73,10.66c3.34,3.47,6.72,6.88,10.26,10.16l.07-.07c-3.07-3.71-6.29-7.29-9.56-10.82s-6.66-6.94-10.1-10.31c-1.71-1.69-3.41-3.4-5-5.17s-3.17-3.62-4.77-5.42c-3.25-3.54-6.62-7-10.17-10.23Z" style="fill:#a6a6a6"></path><path d="M136.22,326.06c2.36,4.21,4.92,8.28,7.63,12.25,1.38,2,2.83,3.9,4.18,5.89s2.63,4,3.88,6.09c2.49,4.12,5.07,8.17,7.72,12.19s5.43,7.94,8.34,11.79l.09-.06c-2.39-4.19-4.94-8.27-7.54-12.32s-5.35-8-8.16-11.9c-1.39-2-2.76-3.94-4.06-6s-2.49-4.12-3.76-6.16c-2.58-4.06-5.31-8-8.24-11.85Z" style="fill:#a6a6a6"></path><path d="M145.06,321.27c1.6,4.55,3.42,9,5.39,13.39,1,2.18,2.11,4.33,3.1,6.53s1.89,4.42,2.76,6.66q2.61,6.73,5.49,13.35c1.95,4.4,4,8.77,6.17,13.06l.09,0c-1.62-4.54-3.42-9-5.28-13.44s-3.88-8.8-6-13.14c-1-2.18-2-4.36-3-6.58s-1.74-4.49-2.63-6.73c-1.84-4.44-3.84-8.82-6.06-13.1Z" style="fill:#a6a6a6"></path><path d="M154.61,318.09c.78,4.76,1.8,9.46,3,14.13.63,2.32,1.33,4.63,1.92,7s1.09,4.68,1.56,7c.93,4.73,2,9.42,3.09,14.1s2.38,9.32,3.81,13.93l.09,0c-.8-4.76-1.8-9.46-2.87-14.16s-2.29-9.34-3.59-14c-.64-2.32-1.25-4.65-1.78-7s-.93-4.72-1.42-7.08c-1-4.69-2.25-9.35-3.69-13.95Z" style="fill:#a6a6a6"></path><path d="M154.27,374.24a14.44,14.44,0,1,0,14.44-14.44A14.45,14.45,0,0,0,154.27,374.24Z" style="fill:#a6a6a6"></path><path d="M106.89,374.24a61.82,61.82,0,1,1,61.82,61.82A61.89,61.89,0,0,1,106.89,374.24Zm7,0a54.82,54.82,0,1,0,54.82-54.82A54.89,54.89,0,0,0,113.89,374.24Z" style="fill:#37474f"></path><path d="M381,316.62c0,4.82.13,9.63.48,14.42.22,2.4.5,4.79.68,7.19s.26,4.81.32,7.21c.09,4.82.31,9.62.59,14.42s.73,9.6,1.33,14.38h.1c0-4.82-.13-9.62-.37-14.43s-.63-9.6-1.11-14.39c-.22-2.4-.42-4.79-.53-7.2s-.1-4.81-.17-7.21c-.22-4.81-.6-9.61-1.22-14.39Z" style="fill:#a6a6a6"></path><path d="M391.09,316.89c-.89,4.74-1.55,9.51-2,14.3-.21,2.39-.34,4.8-.58,7.19s-.58,4.78-.94,7.16c-.75,4.75-1.37,9.52-1.93,14.3s-.94,9.58-1.18,14.39h.1c.87-4.74,1.54-9.5,2.14-14.28s1-9.56,1.41-14.36c.19-2.4.42-4.79.72-7.18s.74-4.76,1.09-7.14c.62-4.77,1.08-9.56,1.3-14.37Z" style="fill:#a6a6a6"></path><path d="M401,318.91c-1.7,4.51-3.18,9.1-4.48,13.73-.62,2.32-1.17,4.67-1.82,7s-1.41,4.6-2.18,6.88c-1.55,4.56-3,9.15-4.37,13.76s-2.6,9.26-3.67,14l.1,0c1.68-4.52,3.17-9.09,4.59-13.69s2.68-9.24,3.88-13.9c.6-2.33,1.24-4.65,2-7s1.55-4.55,2.3-6.84c1.45-4.59,2.73-9.22,3.78-13.93Z" style="fill:#a6a6a6"></path><path d="M410.3,322.61c-2.46,4.15-4.7,8.41-6.79,12.74-1,2.18-2,4.4-3,6.56s-2.18,4.29-3.33,6.4c-2.33,4.22-4.54,8.49-6.7,12.79s-4.16,8.67-6,13.12l.09,0c2.43-4.16,4.69-8.41,6.89-12.68s4.25-8.64,6.24-13c1-2.19,2-4.36,3.13-6.5s2.32-4.22,3.46-6.34c2.22-4.27,4.29-8.61,6.14-13.06Z" style="fill:#a6a6a6"></path><path d="M418.87,327.88c-3.14,3.66-6.09,7.46-8.9,11.36-1.38,2-2.69,4-4.1,5.95s-2.89,3.84-4.39,5.72q-4.53,5.63-8.82,11.43c-2.83,3.89-5.61,7.82-8.22,11.87l.08.06c3.12-3.67,6.09-7.47,9-11.3s5.68-7.76,8.4-11.73c1.36-2,2.75-3.95,4.21-5.86s3-3.75,4.51-5.64c2.93-3.82,5.72-7.74,8.31-11.8Z" style="fill:#a6a6a6"></path><path d="M426.4,334.56c-3.73,3.05-7.29,6.29-10.74,9.64-1.7,1.71-3.35,3.46-5.07,5.14s-3.51,3.29-5.32,4.88c-3.63,3.16-7.17,6.42-10.67,9.72s-6.88,6.73-10.15,10.26l.06.07c3.72-3.07,7.29-6.29,10.83-9.56s6.94-6.65,10.31-10.1c1.69-1.71,3.4-3.4,5.16-5s3.63-3.17,5.42-4.77c3.55-3.25,7-6.63,10.24-10.18Z" style="fill:#a6a6a6"></path><path d="M432.66,342.44c-4.21,2.36-8.28,4.93-12.26,7.63-2,1.39-3.89,2.83-5.88,4.18s-4,2.63-6.09,3.88c-4.12,2.49-8.17,5.08-12.19,7.72s-7.94,5.43-11.79,8.35l.06.08c4.19-2.38,8.27-4.93,12.31-7.54s8-5.35,11.91-8.15c2-1.4,3.94-2.77,6-4.06s4.11-2.5,6.16-3.76c4.06-2.59,8-5.32,11.85-8.25Z" style="fill:#a6a6a6"></path><path d="M437.45,351.29c-4.55,1.6-9,3.41-13.4,5.39-2.18,1-4.33,2.11-6.52,3.09s-4.42,1.89-6.67,2.76c-4.49,1.74-8.93,3.59-13.35,5.49s-8.76,4-13.05,6.17l0,.09c4.54-1.61,9-3.42,13.44-5.28s8.8-3.88,13.14-6c2.17-1,4.36-2,6.58-3s4.49-1.74,6.72-2.63c4.45-1.84,8.82-3.84,13.1-6.06Z" style="fill:#a6a6a6"></path><path d="M440.63,360.83c-4.76.79-9.46,1.8-14.13,3-2.32.62-4.63,1.32-7,1.91s-4.68,1.09-7,1.56c-4.73.93-9.42,2-14.1,3.09s-9.32,2.39-13.93,3.81l0,.1c4.76-.81,9.46-1.81,14.15-2.87s9.35-2.3,14-3.59c2.32-.64,4.65-1.25,7-1.78s4.72-.94,7.07-1.42c4.7-1.05,9.36-2.26,14-3.7Z" style="fill:#a6a6a6"></path><path d="M442.1,370.79c-4.82-.06-9.63.13-14.43.48-2.39.21-4.79.5-7.18.68s-4.81.26-7.21.31c-4.82.1-9.62.31-14.43.6s-9.59.73-14.37,1.33v.1c4.82,0,9.63-.14,14.44-.37s9.6-.64,14.39-1.11c2.39-.23,4.79-.42,7.19-.54s4.82-.1,7.22-.17c4.81-.21,9.6-.59,14.39-1.21Z" style="fill:#a6a6a6"></path><path d="M441.82,380.85c-4.73-.9-9.5-1.55-14.29-2-2.4-.21-4.8-.34-7.19-.58s-4.78-.58-7.16-.95c-4.76-.74-9.53-1.36-14.3-1.92s-9.58-.94-14.39-1.18l0,.1c4.75.87,9.51,1.54,14.28,2.14s9.57,1,14.37,1.41c2.4.19,4.79.41,7.18.72s4.76.74,7.14,1.08c4.77.63,9.56,1.09,14.37,1.3Z" style="fill:#a6a6a6"></path><path d="M439.81,390.7c-4.52-1.7-9.1-3.17-13.73-4.48-2.32-.62-4.67-1.16-7-1.82s-4.61-1.4-6.89-2.17c-4.55-1.56-9.14-3-13.75-4.38s-9.27-2.59-14-3.66l0,.1c4.51,1.68,9.09,3.16,13.69,4.59s9.23,2.68,13.9,3.88c2.33.6,4.65,1.24,6.94,1.95s4.56,1.55,6.84,2.31c4.59,1.45,9.23,2.73,13.94,3.78Z" style="fill:#a6a6a6"></path><path d="M436.11,400.06c-4.15-2.46-8.41-4.7-12.74-6.79-2.18-1-4.4-2-6.56-3s-4.29-2.18-6.41-3.33c-4.21-2.33-8.48-4.54-12.78-6.7s-8.67-4.17-13.12-6l0,.09c4.16,2.44,8.4,4.7,12.68,6.9s8.63,4.25,13,6.24c2.19,1,4.36,2,6.5,3.13s4.22,2.32,6.34,3.46c4.26,2.22,8.61,4.29,13.06,6.14Z" style="fill:#a6a6a6"></path><path d="M430.84,408.63c-3.66-3.14-7.46-6.09-11.37-8.9-2-1.38-4-2.7-5.94-4.1s-3.84-2.89-5.72-4.39c-3.75-3-7.57-5.95-11.43-8.82s-7.82-5.61-11.87-8.22l-.06.08c3.67,3.12,7.46,6.08,11.29,9s7.77,5.69,11.74,8.4c2,1.37,3.95,2.76,5.86,4.22s3.75,3,5.64,4.51c3.82,2.92,7.74,5.71,11.8,8.31Z" style="fill:#a6a6a6"></path><path d="M424.16,416.16c-3.06-3.73-6.29-7.29-9.64-10.74-1.71-1.7-3.47-3.35-5.14-5.07s-3.29-3.52-4.88-5.32c-3.16-3.63-6.42-7.17-9.72-10.67s-6.73-6.88-10.26-10.16l-.08.07c3.08,3.72,6.3,7.29,9.56,10.82s6.66,7,10.1,10.31c1.72,1.69,3.41,3.4,5,5.17s3.17,3.62,4.77,5.42c3.25,3.55,6.63,7,10.18,10.24Z" style="fill:#a6a6a6"></path><path d="M416.28,422.41c-2.37-4.2-4.93-8.27-7.63-12.25-1.39-2-2.83-3.9-4.19-5.88s-2.62-4-3.87-6.09c-2.49-4.12-5.08-8.18-7.73-12.2s-5.43-7.94-8.34-11.78l-.08.06c2.38,4.19,4.93,8.27,7.53,12.31s5.35,8,8.16,11.91c1.39,2,2.76,3.94,4.06,6s2.5,4.12,3.76,6.17c2.59,4.05,5.32,8,8.24,11.85Z" style="fill:#a6a6a6"></path><path d="M407.43,427.2c-1.6-4.55-3.42-9-5.39-13.39-1-2.18-2.11-4.33-3.1-6.52s-1.88-4.43-2.76-6.67c-1.73-4.49-3.58-8.93-5.48-13.35s-4-8.76-6.17-13l-.1,0c1.62,4.54,3.42,9,5.29,13.44s3.88,8.8,6,13.14c1,2.17,2,4.36,3,6.58s1.74,4.49,2.63,6.72c1.84,4.45,3.84,8.82,6.06,13.1Z" style="fill:#a6a6a6"></path><path d="M397.88,430.38c-.78-4.75-1.8-9.46-3-14.12-.62-2.32-1.32-4.63-1.91-7s-1.09-4.69-1.57-7.05c-.92-4.72-2-9.42-3.08-14.1s-2.39-9.32-3.81-13.92l-.1,0c.81,4.75,1.81,9.46,2.87,14.15s2.29,9.34,3.59,14c.64,2.32,1.25,4.65,1.78,7s.93,4.73,1.42,7.08c1.05,4.7,2.25,9.35,3.7,14Z" style="fill:#a6a6a6"></path><path d="M387.93,431.86c.05-4.82-.13-9.63-.48-14.43-.22-2.4-.5-4.79-.68-7.19s-.26-4.8-.32-7.21c-.09-4.81-.31-9.62-.59-14.42s-.73-9.59-1.33-14.38h-.1c0,4.82.13,9.63.37,14.43s.63,9.6,1.11,14.4c.22,2.39.42,4.79.53,7.19s.11,4.81.18,7.22c.21,4.81.59,9.6,1.21,14.38Z" style="fill:#a6a6a6"></path><path d="M377.87,431.58c.89-4.74,1.55-9.5,2-14.29.21-2.4.34-4.8.58-7.2s.58-4.77.94-7.15c.75-4.76,1.37-9.53,1.93-14.31s.94-9.57,1.18-14.39h-.1c-.87,4.74-1.54,9.51-2.14,14.28s-1,9.57-1.41,14.37c-.19,2.39-.42,4.79-.72,7.18s-.74,4.75-1.09,7.13c-.62,4.77-1.08,9.56-1.3,14.38Z" style="fill:#a6a6a6"></path><path d="M368,429.56c1.7-4.51,3.17-9.09,4.47-13.72.62-2.33,1.17-4.67,1.82-7s1.41-4.6,2.18-6.88c1.55-4.55,3-9.14,4.37-13.75s2.6-9.27,3.67-14l-.1,0c-1.68,4.52-3.16,9.1-4.59,13.69s-2.68,9.24-3.88,13.9c-.6,2.33-1.24,4.65-2,6.95s-1.55,4.56-2.3,6.84c-1.45,4.59-2.73,9.23-3.78,13.93Z" style="fill:#a6a6a6"></path><path d="M358.66,425.86c2.46-4.15,4.7-8.4,6.79-12.73,1-2.19,2-4.4,3-6.57s2.18-4.29,3.33-6.4c2.33-4.21,4.54-8.48,6.7-12.78s4.16-8.68,6-13.12l-.09,0c-2.44,4.15-4.7,8.4-6.9,12.68s-4.25,8.63-6.24,13c-1,2.19-2,4.36-3.13,6.5s-2.32,4.22-3.46,6.33c-2.22,4.27-4.29,8.62-6.14,13.07Z" style="fill:#a6a6a6"></path><path d="M350.09,420.6c3.14-3.66,6.09-7.47,8.9-11.37,1.38-2,2.69-4,4.1-5.94s2.89-3.85,4.39-5.73c3-3.74,5.95-7.56,8.82-11.42s5.61-7.82,8.22-11.87l-.08-.06c-3.12,3.67-6.09,7.46-9,11.29s-5.68,7.76-8.4,11.74c-1.36,2-2.75,3.94-4.21,5.86s-3,3.75-4.51,5.63c-2.93,3.82-5.72,7.74-8.31,11.81Z" style="fill:#a6a6a6"></path><path d="M342.56,413.92c3.73-3.06,7.29-6.29,10.74-9.65,1.7-1.7,3.35-3.46,5.07-5.14s3.51-3.28,5.32-4.87c3.63-3.17,7.17-6.42,10.67-9.72s6.88-6.73,10.15-10.27l-.06-.07c-3.72,3.07-7.29,6.29-10.83,9.56s-6.94,6.66-10.31,10.1c-1.68,1.72-3.4,3.41-5.16,5s-3.63,3.17-5.42,4.77c-3.55,3.25-7,6.63-10.24,10.18Z" style="fill:#a6a6a6"></path><path d="M336.31,406c4.2-2.37,8.27-4.93,12.25-7.64,2-1.38,3.89-2.83,5.88-4.18s4-2.62,6.09-3.88c4.12-2.48,8.17-5.07,12.19-7.72s7.95-5.43,11.79-8.34l-.06-.08c-4.19,2.38-8.27,4.93-12.31,7.53s-8,5.35-11.91,8.16c-2,1.39-3.94,2.76-6,4.06s-4.11,2.49-6.16,3.76c-4.06,2.58-8,5.31-11.85,8.24Z" style="fill:#a6a6a6"></path><path d="M331.52,397.19c4.54-1.6,9-3.42,13.39-5.39,2.18-1,4.33-2.11,6.52-3.1s4.42-1.88,6.67-2.76c4.49-1.73,8.93-3.58,13.35-5.49s8.76-4,13.05-6.17l0-.09c-4.54,1.62-9,3.42-13.44,5.28s-8.8,3.89-13.14,6c-2.17,1-4.36,2-6.58,3s-4.49,1.74-6.72,2.63c-4.45,1.85-8.82,3.85-13.1,6.07Z" style="fill:#a6a6a6"></path><path d="M328.33,387.64c4.76-.78,9.47-1.8,14.13-3,2.32-.63,4.63-1.33,7-1.92s4.69-1.09,7.05-1.56c4.72-.93,9.41-2,14.09-3.08s9.33-2.39,13.93-3.81l0-.1c-4.75.8-9.46,1.8-14.15,2.87s-9.35,2.29-14,3.59c-2.32.64-4.65,1.25-7,1.78s-4.72.93-7.07,1.42c-4.7,1-9.36,2.25-14,3.69Z" style="fill:#a6a6a6"></path><path d="M326.86,377.69c4.82.05,9.63-.13,14.43-.49,2.39-.21,4.79-.5,7.19-.68s4.8-.25,7.21-.31c4.81-.09,9.61-.31,14.42-.59s9.59-.73,14.37-1.33v-.1c-4.82,0-9.63.13-14.44.37s-9.6.63-14.39,1.1c-2.39.23-4.79.43-7.19.54s-4.82.1-7.22.17c-4.81.21-9.6.6-14.39,1.22Z" style="fill:#a6a6a6"></path><path d="M327.14,367.63c4.74.89,9.5,1.54,14.29,2,2.4.2,4.8.34,7.2.58s4.77.58,7.15.94c4.76.74,9.53,1.37,14.3,1.92s9.58.95,14.39,1.19l0-.1c-4.75-.87-9.51-1.54-14.28-2.15s-9.57-1-14.37-1.4c-2.4-.2-4.79-.42-7.18-.72s-4.75-.74-7.14-1.09c-4.77-.62-9.55-1.08-14.37-1.3Z" style="fill:#a6a6a6"></path><path d="M329.16,357.77c4.51,1.7,9.09,3.17,13.72,4.48,2.32.62,4.67,1.17,7,1.82s4.61,1.4,6.89,2.17c4.55,1.56,9.14,3,13.75,4.38s9.27,2.59,14,3.67l0-.1c-4.51-1.68-9.09-3.17-13.68-4.59s-9.24-2.69-13.91-3.88c-2.33-.61-4.65-1.24-6.94-2s-4.56-1.55-6.84-2.31c-4.59-1.44-9.23-2.72-13.94-3.77Z" style="fill:#a6a6a6"></path><path d="M332.85,348.42c4.15,2.45,8.41,4.7,12.74,6.79,2.18,1,4.4,2,6.57,3s4.28,2.17,6.4,3.33c4.21,2.32,8.48,4.54,12.78,6.7s8.68,4.16,13.12,6l0-.09c-4.16-2.44-8.4-4.7-12.68-6.9s-8.63-4.24-13-6.23c-2.19-1-4.36-2-6.5-3.13s-4.22-2.32-6.34-3.46c-4.26-2.22-8.61-4.29-13.06-6.14Z" style="fill:#a6a6a6"></path><path d="M338.12,339.84c3.66,3.14,7.46,6.09,11.37,8.91,2,1.37,4,2.69,5.94,4.1s3.84,2.89,5.72,4.39q5.63,4.53,11.43,8.82c3.89,2.83,7.82,5.6,11.87,8.22l.06-.08c-3.67-3.13-7.46-6.09-11.29-9s-7.77-5.68-11.74-8.4c-2-1.37-3.94-2.76-5.86-4.21s-3.75-3-5.64-4.51c-3.82-2.93-7.74-5.72-11.8-8.32Z" style="fill:#a6a6a6"></path><path d="M344.8,332.32c3.06,3.72,6.29,7.29,9.64,10.74,1.71,1.7,3.47,3.34,5.14,5.07s3.29,3.51,4.88,5.32c3.16,3.62,6.42,7.17,9.72,10.66s6.73,6.88,10.26,10.16l.08-.07c-3.08-3.71-6.3-7.29-9.56-10.82s-6.66-6.94-10.1-10.31c-1.72-1.69-3.41-3.4-5-5.17s-3.17-3.62-4.77-5.42c-3.25-3.54-6.63-7-10.18-10.23Z" style="fill:#a6a6a6"></path><path d="M352.68,326.06c2.37,4.21,4.93,8.28,7.64,12.25,1.38,2,2.82,3.9,4.18,5.89s2.62,4,3.87,6.09c2.49,4.12,5.08,8.17,7.73,12.19s5.43,7.94,8.34,11.79l.08-.06c-2.38-4.19-4.93-8.27-7.53-12.32s-5.35-8-8.16-11.9c-1.39-2-2.76-3.94-4.06-6s-2.5-4.12-3.76-6.16c-2.59-4.06-5.32-8-8.24-11.85Z" style="fill:#a6a6a6"></path><path d="M361.53,321.27c1.6,4.55,3.42,9,5.39,13.39,1,2.18,2.11,4.33,3.1,6.53s1.88,4.42,2.76,6.66c1.73,4.49,3.58,8.94,5.48,13.35s4,8.77,6.17,13.06l.1,0c-1.62-4.54-3.42-9-5.29-13.44s-3.88-8.8-6-13.14c-1-2.18-2-4.36-3-6.58s-1.74-4.49-2.63-6.73c-1.84-4.44-3.84-8.82-6.06-13.1Z" style="fill:#a6a6a6"></path><path d="M371.08,318.09c.78,4.76,1.8,9.46,3,14.13.63,2.32,1.32,4.63,1.92,7s1.08,4.68,1.56,7c.92,4.73,2,9.42,3.08,14.1s2.39,9.32,3.81,13.93l.1,0c-.81-4.76-1.81-9.46-2.87-14.16s-2.29-9.34-3.59-14c-.64-2.32-1.25-4.65-1.78-7s-.93-4.72-1.42-7.08c-1-4.69-2.25-9.35-3.7-13.95Z" style="fill:#a6a6a6"></path><circle cx="385.18" cy="374.24" r="14.44" transform="translate(-113.17 174.08) rotate(-22.29)" style="fill:#a6a6a6"></circle><path d="M323.36,374.24a61.82,61.82,0,1,1,61.82,61.82A61.89,61.89,0,0,1,323.36,374.24Zm7,0a54.82,54.82,0,1,0,54.82-54.82A54.89,54.89,0,0,0,330.36,374.24Z" style="fill:#37474f"></path><path d="M275.32,379.25a14.36,14.36,0,1,0,14.36-14.37A14.36,14.36,0,0,0,275.32,379.25Z" style="fill:#a6a6a6"></path><path d="M292.11,377.82q6.92,14.63,13.82,29.24c1.54,3.26-3.32,6.13-4.87,2.84q-6.9-14.61-13.82-29.23c-1.54-3.26,3.32-6.13,4.87-2.85Z" style="fill:#c7c7c7"></path><path d="M365.65,256.56c4.36,8.13-20.48,9.85-31.11,8s-25.19,1.25-25.19-4.69S357.52,241.4,365.65,256.56Z" style="fill:#263238"></path><path d="M219.91,272.93l-8-2.56c-1.72-.55-1-3.27.75-2.72l8,2.56c1.73.55,1,3.27-.74,2.72Z" style="fill:#37474f"></path><path d="M195.5,241.83a5.64,5.64,0,1,0,5.64-5.64A5.64,5.64,0,0,0,195.5,241.83Z" style="fill:#FFC727"></path><rect x="290.78" y="403.48" width="24.93" height="10.92" transform="translate(606.49 817.88) rotate(180)" style="fill:#263238"></rect><rect x="329.23" y="277.16" width="9.87" height="2.25" style="fill:#37474f"></rect></g><g id="freepik--Plant--inject-21"><path d="M294.22,179.35,277,167.77l-6.65,10.43,18.33,11.05,7.36-1.8Zm-1.69,7.05a1,1,0,1,1,1.38-.12A1,1,0,0,1,292.53,186.4Z" style="fill:#ebebeb"></path><path d="M293,186.21a.56.56,0,0,1,.79-.65c.47.24,11.37,5.89,12.77,10.35a2.78,2.78,0,0,1-.15,2.2,2.53,2.53,0,0,1-2.35,1.56c-3.32-.08-7.93-6.78-11-13.37Zm12.5,10.09v-.05c-.91-2.88-7-6.83-10.68-8.87,3.28,6.5,7.07,11.11,9.28,11.17.35,0,.87-.09,1.33-1A1.6,1.6,0,0,0,305.47,196.3Z" style="fill:#263238"></path><path d="M298.41,161.06c11.64,11.39,13.59,29,11.14,44.45-.07.35-.61.25-.61-.08,0-3.51.11-7,.1-10.46-.07-.16-.12-.31-.18-.47-3-2.21-5.83-4.7-7.56-8.12-1.94-3.82-2.71-8.13-4.19-12.12-.14-.38.27-.27.53-.08C304.72,179.4,307,185,309,192.52a62.63,62.63,0,0,0-1.24-11.68c-1.52-7.12-4.55-14.18-9.66-19.47C297.91,161.17,298.21,160.86,298.41,161.06Z" style="fill:#263238"></path><path d="M296.23,162.39c-2,.07-3.26,3.27-4.82,4.2a1.5,1.5,0,0,1-2.21-.35c-1.54-2.15.58-4.81,2.57-6.3-1.42.58-2.61,1.61-4.14,1.91a1.45,1.45,0,0,1-1.88-1.13c-.67-2.94,3-4.24,5.55-4.31-1.23-.85-4.75-3.17-2.88-4.31s6,2.17,7.37,3.26c2,1.61,4.33,4,4.42,6.52C300.33,164.81,297.77,163,296.23,162.39Z" style="fill:#FFC727"></path><path d="M296.23,162.39c-2,.07-3.26,3.27-4.82,4.2a1.5,1.5,0,0,1-2.21-.35c-1.54-2.15.58-4.81,2.57-6.3-1.42.58-2.61,1.61-4.14,1.91a1.45,1.45,0,0,1-1.88-1.13c-.67-2.94,3-4.24,5.55-4.31-1.23-.85-4.75-3.17-2.88-4.31s6,2.17,7.37,3.26c2,1.61,4.33,4,4.42,6.52C300.33,164.81,297.77,163,296.23,162.39Z" style="opacity:0.1"></path><path d="M296.81,162.88c-2.56-1.16-7.48.52-7.9-.45-.84-2,3.08-3.33,5.2-3.59-1.95-.53-5.69-1.37-5.57-3.25.14-2.3,5.73-.32,8.57,1.85,3.57,2.74,3.54,5.38,2.95,5.91C299.25,164.07,297.23,163.08,296.81,162.88Z" style="fill:#FFC727"></path><path d="M324.91,159.94c-12.06,10.93-14.68,28.47-12.82,44,.05.35.6.28.61,0,.13-3.51.16-7,.3-10.46l.2-.46c3.12-2.09,6-4.48,7.86-7.83,2.09-3.74,3-8,4.65-12,.15-.38-.26-.28-.53-.09-7.27,4.94-9.74,10.47-12.06,17.89a62.61,62.61,0,0,1,1.68-11.63c1.8-7.06,5.09-14,10.4-19.08C325.4,160.06,325.12,159.74,324.91,159.94Z" style="fill:#263238"></path><path d="M327,161.35c2,.14,3.13,3.38,4.65,4.38a1.51,1.51,0,0,0,2.22-.27c1.63-2.09-.39-4.83-2.32-6.4,1.4.64,2.54,1.72,4.07,2.07a1.45,1.45,0,0,0,1.91-1c.79-2.91-2.85-4.36-5.37-4.52,1.25-.81,4.86-3,3-4.2s-6.09,1.94-7.48,3c-2,1.53-4.49,3.84-4.67,6.34C322.85,163.61,325.48,161.9,327,161.35Z" style="fill:#FFC727"></path><path d="M327,161.35c2,.14,3.13,3.38,4.65,4.38a1.51,1.51,0,0,0,2.22-.27c1.63-2.09-.39-4.83-2.32-6.4,1.4.64,2.54,1.72,4.07,2.07a1.45,1.45,0,0,0,1.91-1c.79-2.91-2.85-4.36-5.37-4.52,1.25-.81,4.86-3,3-4.2s-6.09,1.94-7.48,3c-2,1.53-4.49,3.84-4.67,6.34C322.85,163.61,325.48,161.9,327,161.35Z" style="opacity:0.1"></path><path d="M326.44,161.82c2.6-1.07,7.45.79,7.91-.16.92-1.94-3-3.44-5.06-3.78,2-.45,5.74-1.15,5.7-3-.06-2.3-5.73-.54-8.64,1.52-3.67,2.6-3.75,5.24-3.18,5.79C324,162.91,326,162,326.44,161.82Z" style="fill:#FFC727"></path><path d="M312.58,188.82a118.48,118.48,0,0,1-3.75,17.3A.43.43,0,0,1,308,206c.79-5.33,2.24-10.56,3-15.89a80.29,80.29,0,0,0,.92-16.32c-.5-9-2.94-18.53-8.8-25.56-.13-.16.14-.4.27-.24,11.74,13.68,9.87,30.45,9.86,31.95,1.66-5.66,3.37-12.15,9.66-17.92.27-.25.48-.13.43.29-1.12,10.51-4,16-10.13,21.61C313.06,185.53,312.84,187.19,312.58,188.82Z" style="fill:#263238"></path><path d="M303,149.76c-2.11-.94-5,1.75-7.11,1.93a1.74,1.74,0,0,1-2.12-1.47c-.51-3,3-4.71,5.84-5.25-1.77-.11-3.52.36-5.26-.11a1.67,1.67,0,0,1-1.38-2.1c.78-3.4,5.27-2.9,7.92-1.69-.84-1.5-3.32-5.68-.81-5.92s5.15,5.28,6,7.09c1.24,2.66,2.49,6.34,1.31,9C306.07,154.33,304.32,151.17,303,149.76Z" style="fill:#FFC727"></path><path d="M303,149.76c-2.11-.94-5,1.75-7.11,1.93a1.74,1.74,0,0,1-2.12-1.47c-.51-3,3-4.71,5.84-5.25-1.77-.11-3.52.36-5.26-.11a1.67,1.67,0,0,1-1.38-2.1c.78-3.4,5.27-2.9,7.92-1.69-.84-1.5-3.32-5.68-.81-5.92s5.15,5.28,6,7.09c1.24,2.66,2.49,6.34,1.31,9C306.07,154.33,304.32,151.17,303,149.76Z" style="opacity:0.1"></path><path d="M303.38,150.56c-2.07-2.5-8-3.23-8-4.45.12-2.47,4.87-1.89,7.21-1.1-1.76-1.53-5.22-4.29-4.15-6.18,1.3-2.32,6.11,2.55,8,6.23,2.32,4.64,1,7.37.09,7.62C305.33,153,303.72,151,303.38,150.56Z" style="fill:#FFC727"></path><path d="M320.3,192l5.17,39.53H294c.65-3.5,6.51-39.58,6.51-39.58Z" style="fill:#FFC727"></path></g><g id="freepik--Sign--inject-21"><polygon points="684.79 409.38 594.51 409.38 571.22 277.26 661.49 277.26 684.79 409.38" style="fill:#FFC727"></polygon><polygon points="594.51 409.38 603.39 409.38 606.59 427.51 597.71 427.51 594.51 409.38" style="fill:#FFC727"></polygon><polygon points="675.93 409.38 684.81 409.38 688.01 427.51 679.13 427.51 675.93 409.38" style="fill:#FFC727"></polygon><g style="opacity:0.2"><polygon points="684.79 409.38 594.51 409.38 571.22 277.26 661.49 277.26 684.79 409.38"></polygon><polygon points="594.51 409.38 603.39 409.38 606.59 427.51 597.71 427.51 594.51 409.38"></polygon><polygon points="675.93 409.38 684.81 409.38 688.01 427.51 679.13 427.51 675.93 409.38"></polygon></g><polygon points="661.46 277.26 638.17 409.38 634.97 427.5 626.09 427.5 629.29 409.38 556.75 409.38 553.55 427.5 544.67 427.5 547.87 409.38 547.89 409.38 571.19 277.26 661.46 277.26" style="fill:#FFC727"></polygon><polygon points="558.82 395.4 631.4 395.4 650.52 286.37 577.95 286.37 558.82 395.4" style="fill:#263238"></polygon><path d="M585.09,310.4l1.63-8.69a1,1,0,0,1,1-.81.66.66,0,0,1,.68.81l-1.48,7.87h4a.66.66,0,0,1,.65.82,1,1,0,0,1-1,.82h-4.82A.66.66,0,0,1,585.09,310.4Z" style="fill:#fff"></path><path d="M602.92,302.18a4.68,4.68,0,0,1,.79,3.73,6.67,6.67,0,0,1-2.19,3.73,5.85,5.85,0,0,1-3.82,1.58,4.07,4.07,0,0,1-3.31-1.58,4.59,4.59,0,0,1-.76-3.73,6.61,6.61,0,0,1,2.16-3.73,6,6,0,0,1,3.9-1.58A3.91,3.91,0,0,1,602.92,302.18Zm-.89,3.73a3.31,3.31,0,0,0-.52-2.58,2.6,2.6,0,0,0-2.13-1.05,3.94,3.94,0,0,0-2.59,1.05,4.65,4.65,0,0,0-1.48,2.58,3.16,3.16,0,0,0,.52,2.56,2.61,2.61,0,0,0,2.19,1.07,3.89,3.89,0,0,0,2.53-1.07A4.65,4.65,0,0,0,602,305.91Z" style="fill:#fff"></path><path d="M606.16,305.91a6.84,6.84,0,0,1,6.4-5.31,4.66,4.66,0,0,1,3.19,1.15.86.86,0,0,1-.07,1.18.91.91,0,0,1-1.21.16,3.11,3.11,0,0,0-2.22-.81,4.64,4.64,0,0,0-2.85,1.06,4.56,4.56,0,0,0-1.56,2.57,3.05,3.05,0,0,0,.59,2.56,3.23,3.23,0,0,0,2.46,1.07,4.36,4.36,0,0,0,2.52-.82.84.84,0,0,1,1.15.17,1,1,0,0,1-.37,1.18,6.48,6.48,0,0,1-3.62,1.15A4.34,4.34,0,0,1,606.16,305.91Z" style="fill:#fff"></path><path d="M622.93,308.78h-3.59l-1.08,1.92a1,1,0,0,1-.86.52.76.76,0,0,1-.27-.05.72.72,0,0,1-.29-1.06l4.89-8.68a1,1,0,0,1,.88-.52.64.64,0,0,1,.68.52l1.63,8.68a1,1,0,0,1-.69,1.06.84.84,0,0,1-.29.05.64.64,0,0,1-.65-.52Zm-.3-1.62L622,304l-1.79,3.17Z" style="fill:#fff"></path><path d="M627.33,310.4l1.63-8.69a1,1,0,0,1,1-.81.65.65,0,0,1,.67.81l-1.47,7.87h4a.67.67,0,0,1,.66.82,1.06,1.06,0,0,1-1,.82H628A.65.65,0,0,1,627.33,310.4Z" style="fill:#fff"></path><path d="M574.82,323.6a6.85,6.85,0,0,1,6.41-5.31,4.69,4.69,0,0,1,3.19,1.15.86.86,0,0,1-.08,1.18.91.91,0,0,1-1.21.16,3.09,3.09,0,0,0-2.22-.81,4.71,4.71,0,0,0-2.85,1.06,4.56,4.56,0,0,0-1.56,2.57,3,3,0,0,0,.6,2.56,3.21,3.21,0,0,0,2.45,1.07,4.4,4.4,0,0,0,2.53-.81.81.81,0,0,1,1.14.16,1,1,0,0,1-.36,1.18,6.54,6.54,0,0,1-3.63,1.15A4.35,4.35,0,0,1,574.82,323.6Z" style="fill:#fff"></path><path d="M586.24,328.1l1.64-8.7a1,1,0,0,1,1-.81.65.65,0,0,1,.67.81l-.66,3.54h3.81l.67-3.54a1,1,0,0,1,1-.81.65.65,0,0,1,.67.81l-1.63,8.7a1,1,0,0,1-1,.81.65.65,0,0,1-.66-.81l.66-3.54h-3.82l-.66,3.54a1,1,0,0,1-1,.81A.65.65,0,0,1,586.24,328.1Z" style="fill:#fff"></path><path d="M601.75,326.47h-3.59l-1.08,1.92a1,1,0,0,1-.86.52.76.76,0,0,1-.27-.05.72.72,0,0,1-.29-1.06l4.89-8.68a1,1,0,0,1,.87-.52.65.65,0,0,1,.69.52l1.63,8.68a1,1,0,0,1-.69,1.06.84.84,0,0,1-.29.05.64.64,0,0,1-.65-.52Zm-.3-1.62-.6-3.17-1.79,3.17Z" style="fill:#fff"></path><path d="M613.05,327.68a1,1,0,0,1-.71,1,1.14,1.14,0,0,1-.33.05h0a.93.93,0,0,1-.54-.16,1.12,1.12,0,0,1-.38-.52,3.88,3.88,0,0,1,0-1.77,1.12,1.12,0,0,0-.05-.63,1.07,1.07,0,0,0-.37-.43,2.23,2.23,0,0,0-.75-.35h-1.74l-.6,3.2a1.05,1.05,0,0,1-1,.81.65.65,0,0,1-.66-.81l1.63-8.7a1,1,0,0,1,1-.81h2.63a2.54,2.54,0,0,1,2.56,3.17,3.89,3.89,0,0,1-1.6,2.41,1.76,1.76,0,0,1,.41.55,2.43,2.43,0,0,1,.19,1.59,3.62,3.62,0,0,0-.1.87A.62.62,0,0,1,613.05,327.68Zm-.95-5.92a1.23,1.23,0,0,0-1.23-1.54h-1.82l-.57,3h1.82A1.92,1.92,0,0,0,612.1,321.76Z" style="fill:#fff"></path><path d="M617.54,319.4a1,1,0,0,1,1-.81.66.66,0,0,1,.67.81l-1.63,8.7a1,1,0,0,1-1,.81.64.64,0,0,1-.65-.81Z" style="fill:#fff"></path><path d="M628.53,320.22h-2.35l-1.47,7.88a1,1,0,0,1-1,.81.66.66,0,0,1-.66-.81l1.48-7.88h-2.33a.65.65,0,0,1-.65-.82,1,1,0,0,1,1-.81h6.29a.65.65,0,0,1,.66.81A1,1,0,0,1,628.53,320.22Z" style="fill:#fff"></path><path d="M639.44,320l-3.8,4.15-.75,4a1,1,0,0,1-1,.81.66.66,0,0,1-.66-.81l.75-4L631.8,320a.86.86,0,0,1,.38-1.12.73.73,0,0,1,1.08.18l1.88,3.45L638.3,319a.87.87,0,0,1,1.17-.18A.79.79,0,0,1,639.44,320Z" style="fill:#fff"></path><path d="M582.29,336.86l-1.74,9.29a1.13,1.13,0,0,1-1,.86.69.69,0,0,1-.7-.86l1.24-6.63-2.85,3.15a1.06,1.06,0,0,1-.78.36h0a.72.72,0,0,1-.66-.36l-1.65-3.15-1.25,6.63a1.1,1.1,0,0,1-1,.86.7.7,0,0,1-.7-.86l1.74-9.29a1.1,1.1,0,0,1,1-.86h0a.71.71,0,0,1,.63.36l2.31,4.34,3.95-4.34a1.07,1.07,0,0,1,.77-.36h0A.71.71,0,0,1,582.29,336.86Z" style="fill:#fff"></path><path d="M589.74,344.42h-3.82l-1.16,2a1.08,1.08,0,0,1-.92.55.68.68,0,0,1-.29-.05.77.77,0,0,1-.31-1.13l5.22-9.26a1.12,1.12,0,0,1,.94-.56.7.7,0,0,1,.73.56l1.73,9.26a1.07,1.07,0,0,1-.73,1.13.75.75,0,0,1-.31.05.66.66,0,0,1-.69-.55Zm-.32-1.73-.64-3.39-1.91,3.39Z" style="fill:#fff"></path><path d="M601.79,345.71a1.06,1.06,0,0,1-.75,1.1,2.13,2.13,0,0,1-.36,0h0a1,1,0,0,1-.58-.17,1.13,1.13,0,0,1-.4-.55,4,4,0,0,1,0-1.89,1.16,1.16,0,0,0-.06-.67,1.06,1.06,0,0,0-.39-.46,2.4,2.4,0,0,0-.81-.38h-1.86l-.64,3.42a1.09,1.09,0,0,1-1,.86.69.69,0,0,1-.7-.86l1.74-9.29a1.08,1.08,0,0,1,1-.86h2.81a2.71,2.71,0,0,1,2.74,3.38,4.19,4.19,0,0,1-1.72,2.58,2,2,0,0,1,.45.58,2.76,2.76,0,0,1,.2,1.7,4,4,0,0,0-.12.93A.65.65,0,0,1,601.79,345.71Zm-1-6.33a1.31,1.31,0,0,0-1.31-1.63h-1.94l-.61,3.24h1.94A2.05,2.05,0,0,0,600.78,339.38Z" style="fill:#fff"></path><path d="M604.73,346.15l1.73-9.21a1.1,1.1,0,0,1,1-.86.71.71,0,0,1,.71.86l-.85,4.52,6.06-5.12a.85.85,0,0,1,1.22,0,.91.91,0,0,1-.23,1.23L610.28,341l2.64,4.58a.91.91,0,0,1-.35,1.21,1,1,0,0,1-.59.2.69.69,0,0,1-.59-.31l-2.56-4.45-2,1.66-.42,2.24a1.09,1.09,0,0,1-1,.86A.69.69,0,0,1,604.73,346.15Z" style="fill:#fff"></path><path d="M616.44,346.15l1.75-9.29a1.08,1.08,0,0,1,1-.86h5.15a.7.7,0,0,1,.7.86,1.12,1.12,0,0,1-1,.89h-4.26l-.54,2.87h3.66a.71.71,0,0,1,.7.87,1.09,1.09,0,0,1-1,.88H618.9l-.54,2.9h4.26a.71.71,0,0,1,.7.88,1.12,1.12,0,0,1-1,.86h-5.1s0,0,0,0h0A.7.7,0,0,1,616.44,346.15Z" style="fill:#fff"></path><path d="M634.55,337.75h-2.5l-1.58,8.4a1.08,1.08,0,0,1-1,.86.7.7,0,0,1-.71-.86l1.58-8.4h-2.49a.71.71,0,0,1-.7-.89,1.08,1.08,0,0,1,1-.86h6.72a.69.69,0,0,1,.7.86A1.12,1.12,0,0,1,634.55,337.75Z" style="fill:#fff"></path><path d="M586.55,373.78h-1.28l-.81,4.3a.54.54,0,0,1-.52.45.36.36,0,0,1-.36-.45l.81-4.3h-1.27a.36.36,0,0,1-.36-.45.54.54,0,0,1,.52-.44h3.44a.36.36,0,0,1,.36.44A.58.58,0,0,1,586.55,373.78Z" style="fill:#fff"></path><path d="M592.6,373.59a2.62,2.62,0,0,1,.43,2,3.69,3.69,0,0,1-1.2,2,3.2,3.2,0,0,1-2.08.86,2.23,2.23,0,0,1-1.81-.86,2.55,2.55,0,0,1-.41-2,3.61,3.61,0,0,1,1.17-2,3.26,3.26,0,0,1,2.14-.86A2.13,2.13,0,0,1,592.6,373.59Zm-.49,2a1.82,1.82,0,0,0-.28-1.41,1.42,1.42,0,0,0-1.17-.57,2.15,2.15,0,0,0-1.41.57,2.52,2.52,0,0,0-.81,1.41,1.72,1.72,0,0,0,.29,1.4,1.44,1.44,0,0,0,1.19.58,2.15,2.15,0,0,0,1.38-.58A2.55,2.55,0,0,0,592.11,375.63Z" style="fill:#fff"></path><path d="M594.15,378.08l.89-4.75a.55.55,0,0,1,.53-.44h.95a2.27,2.27,0,0,1,2.28,2.81,3.56,3.56,0,0,1-3.34,2.83h-1A.36.36,0,0,1,594.15,378.08Zm1-.45h.5a2.42,2.42,0,0,0,2.28-1.93,1.56,1.56,0,0,0-1.56-1.92h-.5Z" style="fill:#fff"></path><path d="M602.69,377.2h-2l-.59,1.05a.58.58,0,0,1-.47.28.37.37,0,0,1-.15,0,.39.39,0,0,1-.16-.58l2.67-4.74a.55.55,0,0,1,.48-.28.34.34,0,0,1,.37.28l.89,4.74a.54.54,0,0,1-.37.58.41.41,0,0,1-.16,0,.35.35,0,0,1-.36-.28Zm-.16-.89-.33-1.73-1,1.73Z" style="fill:#fff"></path><path d="M609.24,373.65l-2.07,2.26-.41,2.17a.55.55,0,0,1-.52.45.36.36,0,0,1-.36-.45l.41-2.17-1.21-2.26a.46.46,0,0,1,.2-.61.39.39,0,0,1,.59.09l1,1.89,1.73-1.89a.47.47,0,0,1,.64-.09A.42.42,0,0,1,609.24,373.65Z" style="fill:#fff"></path><path d="M609.87,378.53a.36.36,0,0,1-.36-.45l0-.16a.55.55,0,0,1,.52-.44.35.35,0,0,1,.35.44l0,.16A.54.54,0,0,1,609.87,378.53Zm-.08-1.94.61-3.26a.55.55,0,0,1,.52-.44.35.35,0,0,1,.35.44l-.61,3.26a.53.53,0,0,1-.51.44A.35.35,0,0,1,609.79,376.59Z" style="fill:#fff"></path></g><g id="freepik--character-1--inject-21"><path d="M164.15,138.34a2.71,2.71,0,0,1,1.09,2.85,2.76,2.76,0,0,1-3.1,2.1,3,3,0,0,1-3.4,3.48,2.5,2.5,0,0,1,0,1,2.75,2.75,0,0,1-4.85,1.08,2.74,2.74,0,0,1-4.29,1.34,2.21,2.21,0,0,1-.05.25,2.76,2.76,0,0,1-5.23.43,2.72,2.72,0,0,1-3.1,1.52,2.77,2.77,0,0,1-2-1.92,3.09,3.09,0,0,1-2,.22,3,3,0,0,1-1.9-1.39,3,3,0,0,1-2.28.39,3,3,0,0,1-2.34-2.79,2.82,2.82,0,0,1-1.08,0,2.75,2.75,0,0,1-2.13-2.94,2.85,2.85,0,0,1-1.33,0,3,3,0,0,1-2.28-3.64,2.76,2.76,0,0,1,.39-.91,2,2,0,0,1-.48-.06,2.76,2.76,0,0,1-2.07-3.3,2.84,2.84,0,0,1,.72-1.32,3,3,0,0,1-2-3.55,3.1,3.1,0,0,1,.81-1.45,3,3,0,0,1-1.28-3.23,3,3,0,0,1,1.68-2.06,2.74,2.74,0,0,1,.94-4,3,3,0,0,1,2.09-5,2.8,2.8,0,0,1,0-1.32,2.77,2.77,0,0,1,2.94-2.13,2.86,2.86,0,0,1,0-1.3,3,3,0,0,1,3.63-2.27,2.74,2.74,0,0,1,.66.25,2.94,2.94,0,0,1,.08-.49,3,3,0,0,1,3.63-2.27,2.89,2.89,0,0,1,.71.27,2.8,2.8,0,0,1,.06-.86,3,3,0,0,1,3.65-2.27,3,3,0,0,1,1.93,1.42,3,3,0,0,1,4.71.43,2.76,2.76,0,0,1,5,.43,2.75,2.75,0,0,1,4.4,1.92,3,3,0,0,1,2.41-.47,3,3,0,0,1,2.35,3,2.65,2.65,0,0,1,1,0,2.75,2.75,0,0,1,2.06,3.3,2.58,2.58,0,0,1-.4.91,1.13,1.13,0,0,1,.18,0,3,3,0,0,1,2,4.46,3,3,0,0,1,.73.07,2.76,2.76,0,0,1,.82,5,2.74,2.74,0,0,1-.36,4.37,3,3,0,0,1-1.17,5.63,2.67,2.67,0,0,1,.75,2.56A2.77,2.77,0,0,1,164.15,138.34Z" style="fill:#263238"></path><path d="M264.63,141l-.25,7.58L279,164.24l8.83-8.67-14.89-14.43Zm1.59,1.88a1,1,0,0,1,1.53,1.2,1,1,0,0,1-1.37.17A1,1,0,0,1,266.22,142.89Z" style="fill:#ebebeb"></path><path d="M266.39,143.78c-7.1-1.67-14.6-4.8-15.36-8a2.52,2.52,0,0,1,1-2.62,2.77,2.77,0,0,1,2.13-.6c4.65.45,12.43,9.94,12.76,10.35a.56.56,0,0,1-.47.91ZM252.78,134c-.76.64-.74,1.16-.66,1.5.51,2.15,5.8,4.91,12.84,6.77-2.74-3.13-7.88-8.32-10.88-8.61H254A1.67,1.67,0,0,0,252.78,134Z" style="fill:#263238"></path><polygon points="237.15 189.24 167 183.49 187.82 125.31 257.98 131.05 237.15 189.24" style="fill:#FFC727"></polygon><polygon points="237.15 189.24 167 183.49 187.82 125.31 257.98 131.05 237.15 189.24" style="opacity:0.2"></polygon><polygon points="234.24 184.36 173.14 179.36 190.74 130.18 251.84 135.19 234.24 184.36" style="fill:#fff"></polygon><polygon points="198.1 174.81 183.35 173.6 196.13 137.88 210.88 139.09 198.1 174.81" style="fill:#FFC727"></polygon><polygon points="234.48 160.9 208.86 158.81 215.77 139.49 241.39 141.59 234.48 160.9" style="fill:#455a64"></polygon><polygon points="215.06 176.19 202.99 175.21 207.76 161.88 219.82 162.87 215.06 176.19" style="fill:#a6a6a6"></polygon><polygon points="228.61 177.3 220.19 176.61 224.96 163.29 233.38 163.98 228.61 177.3" style="fill:#a6a6a6"></polygon><path d="M215.12,147.37c-1.52,4.26-5.88,7.45-9.73,7.14s-5.75-4-4.22-8.28,5.88-7.45,9.73-7.14S216.65,143.11,215.12,147.37Z" style="fill:#263238"></path><polygon points="202.99 175.21 223.56 176.89 231.69 154.17 202.99 175.21" style="fill:#dbdbdb"></polygon><polygon points="167 183.49 237.15 189.24 237.56 191.88 167.42 186.42 167 183.49" style="fill:#FFC727"></polygon><polygon points="237.56 191.88 237.15 189.24 257.98 131.05 258.46 134.2 237.56 191.88" style="fill:#FFC727"></polygon><path d="M139.58,136.55a15.92,15.92,0,0,1-3.5-13.43c1.49-8.31,11.13-10.23,15.33-9.48a14.17,14.17,0,0,1,8.78,5.88s-7.73-5.46-14.88-1.64S137.6,129.19,139.58,136.55Z" style="fill:#FFC727"></path><path d="M140.94,156.54c.29,1,5.39,6.94,9.82,6.42,1.45-.17.85-8.1.85-8.1l.09-.59,1.25-8.33-10.07-5.49-1.45-.72s-.19,2.3-.4,5.17l0,.41c0,.16,0,.31,0,.46,0,.43-.07.87-.1,1.31s0,.65-.05,1,0,.69-.05,1A53,53,0,0,0,140.94,156.54Z" style="fill:#774442"></path><path d="M141,144.9a16.88,16.88,0,0,0,10.67,9.37l1.25-8.33-10.07-5.49-1.45-.72S141.24,142,141,144.9Z" style="fill:#263238"></path><path d="M164.68,134.71c.11,14.78-8.69,16.66-11.91,16.54-2.89-.12-12.75-.29-14.38-15s5.2-19.41,11.81-19.8S164.57,119.94,164.68,134.71Z" style="fill:#774442"></path><path d="M163.93,131.53c-.34-.07-.65-.18-1-.28a1.54,1.54,0,0,1-.95-.47.53.53,0,0,1,0-.64,1.32,1.32,0,0,1,1.3-.22,1.9,1.9,0,0,1,1.16.75A.57.57,0,0,1,163.93,131.53Z" style="fill:#263238"></path><path d="M154.37,131.45a8.48,8.48,0,0,0,1-.15,1.7,1.7,0,0,0,1-.34.54.54,0,0,0,0-.65,1.32,1.32,0,0,0-1.26-.38,2,2,0,0,0-1.24.6A.56.56,0,0,0,154.37,131.45Z" style="fill:#263238"></path><path d="M156.32,135.22s-.08,0-.08.08c0,1-.19,2.16-1.11,2.46a0,0,0,0,0,0,.06C156.25,137.7,156.47,136.17,156.32,135.22Z" style="fill:#263238"></path><path d="M155.46,134.13c-1.61-.18-1.86,3.05-.37,3.23S156.81,134.29,155.46,134.13Z" style="fill:#263238"></path><path d="M154.81,134.25c-.29.16-.6.47-.94.47s-.67-.35-.9-.7c0,0-.05,0-.06,0-.06.62.13,1.28.79,1.42s1.08-.38,1.28-1C155,134.37,154.93,134.19,154.81,134.25Z" style="fill:#263238"></path><path d="M161.76,135.08s.07,0,.06.1c-.11,1-.08,2.16.8,2.57,0,0,0,.06,0,.06C161.51,137.56,161.48,136,161.76,135.08Z" style="fill:#263238"></path><path d="M162.74,134.11c1.62,0,1.47,3.26,0,3.25S161.38,134.1,162.74,134.11Z" style="fill:#263238"></path><path d="M163.41,134.36c.25.18.48.5.79.54s.63-.3.88-.63c0,0,0,0,0,0,0,.62-.24,1.26-.84,1.35s-.93-.47-1.05-1.09C163.21,134.45,163.31,134.28,163.41,134.36Z" style="fill:#263238"></path><path d="M155.7,143c.21.26.41.61.76.69a2.62,2.62,0,0,0,1.11-.12,0,0,0,0,1,0,.06,1.36,1.36,0,0,1-1.34.38,1,1,0,0,1-.67-1C155.59,142.93,155.67,142.92,155.7,143Z" style="fill:#263238"></path><path d="M160.14,139.61s.1,1.51.06,2.22c0,.07-.18.09-.42.09h0a3.35,3.35,0,0,1-3.18-1.47c0-.07.05-.14.11-.09a5,5,0,0,0,3,1.08c.06-.19-.27-2.58-.16-2.58a5.9,5.9,0,0,1,1.59.47c-.14-3.16-.77-6.27-.86-9.42a.1.1,0,0,1,.19,0A51,51,0,0,1,161.8,140C161.83,140.38,160.41,139.75,160.14,139.61Z" style="fill:#263238"></path><path d="M159.76,141.37a4.15,4.15,0,0,1-1.59,1.36,1.85,1.85,0,0,1-1.12.12c-.83-.18-.88-.92-.77-1.57a4.54,4.54,0,0,1,.32-1A5.37,5.37,0,0,0,159.76,141.37Z" style="fill:#263238"></path><path d="M158.17,142.73a1.85,1.85,0,0,1-1.12.12c-.83-.18-.88-.92-.77-1.57A1.93,1.93,0,0,1,158.17,142.73Z" style="fill:#ff9bbc"></path><path d="M139.58,136.55c2.42,1.35,1.82-3.11,1.82-3.11s2.35-1,1.59-4.27c0,0,2.94,1.27,3.78-3a2.76,2.76,0,0,0,2.8-2.9s3.35,2.42,5.21-.75c0,0,2.26,3.19,4.65.59a2.68,2.68,0,0,0,3,1.68,4,4,0,0,0,1.55,3s-2.53-15.54-16.73-11.89C134.1,119.23,136.78,135,139.58,136.55Z" style="fill:#263238"></path><path d="M142,136.2s-3.76-4.19-5.7-2.79,1.27,7.74,3.82,8.35a2.51,2.51,0,0,0,3.17-1.74Z" style="fill:#774442"></path><path d="M137.25,135.2s0,.06,0,.07A6.31,6.31,0,0,1,141,138.8a1.39,1.39,0,0,0-2.1-.13s0,.1.06.09a1.53,1.53,0,0,1,1.75.33,7.53,7.53,0,0,1,1,1.26c.09.14.36,0,.28-.14l0,0C141.69,138,139.62,135.14,137.25,135.2Z" style="fill:#263238"></path><path d="M70.34,417.35c-.25,1.43-.47,2.81-.69,4.16-1.41,8.65-2.24,15.32-1.59,15.94,2,1.89,61.7,13.87,63.93,13.6s1.58-6.65-.36-9c-1.19-1.4-9.34-7.43-15.56-11.94l0,0c-4-2.89-7.19-5.17-7.19-5.17l12-38.72-40.13-7.9S70.72,415.06,70.34,417.35Z" style="fill:#774442"></path><path d="M132,451.05c-2.22.28-61.95-11.71-63.93-13.61-.65-.6.18-7.28,1.59-15.93.1-.62.2-1.25.31-1.87,7.81,2,36.32,14.52,48.59,15.08,4.39.2-.68-3.25-.68-3.25,5.9,4.29,12.68,9.34,13.75,10.62C133.57,444.4,134.21,450.77,132,451.05Z" style="fill:#263238"></path><path d="M117.26,416.13c.43-.2,15.61-58.27,20.92-78.64,7.66-29.39,15.08-77.29,17.31-87.27a146.45,146.45,0,0,0,9.27-35.79s-48.27,0-48.27,0-12.66,24.22-6.13,41.33c.6,1.57-8.43,62.07-13.1,71.86-4,8.47-26.41,78.3-27.21,78.7Z" style="fill:#37474f"></path><path d="M117.2,404.75c-1.2-.36-2.47-.5-3.71-.75s-2.6-.5-3.91-.72c-2.62-.43-5.24-.84-7.86-1.25-5.24-.82-10.49-1.57-15.74-2.32-1.43-.21-2.87-.4-4.31-.59a24.46,24.46,0,0,0-4.35-.41.08.08,0,0,0,0,.15,22.1,22.1,0,0,0,3.67.82c1.31.24,2.62.46,3.92.68,2.58.42,5.15.86,7.73,1.27,5.2.82,10.39,1.67,15.6,2.4,1.48.21,3,.43,4.44.59s3,.45,4.45.48C117.29,405.1,117.42,404.81,117.2,404.75Z" style="fill:#263238"></path><path d="M142.85,248c-.93,5-1.7,10.09-2.53,15.13-.43,2.57-1,5.12-1.41,7.69s-.83,5.05-1.24,7.57q-2.44,15.24-4.86,30.48L130.38,324a139.63,139.63,0,0,1-3,14.74c-1.33,4.86-2.89,9.65-4.37,14.45s-3,9.86-4.55,14.79c-3,9.8-6.13,19.59-8.82,29.48-.34,1.23-.67,2.46-1,3.69,0,.14.17.19.22.05,3.33-9.71,6.41-19.5,9.51-29.29s6.2-19.48,9.11-29.28a122.82,122.82,0,0,0,3.4-14.52c.87-5.05,1.62-10.11,2.42-15.17q2.44-15.24,4.87-30.47c.79-5,1.67-10,2.29-15,.64-5.2,1.54-10.36,2.31-15.54.19-1.27.38-2.54.55-3.81C143.29,247.85,142.9,247.73,142.85,248Z" style="fill:#263238"></path><path d="M143.18,421.55c0,2.43.08,4.82.14,7.14,0,1.45.09,2.86.14,4.22.29,8.76.77,15.47,1.52,15.94,2.32,1.47,63.23,1.65,65.37.95s.26-6.83-2.1-8.72c-1.44-1.15-10.61-5.48-17.58-8.7h0l-8.06-3.68.2-7.14.55-32.55H143.1S142.91,405.75,143.18,421.55Z" style="fill:#774442"></path><path d="M210.34,449.8c-2.13.7-63,.52-65.35-.95-.76-.48-1.24-7.18-1.53-15.94-.05-1.25-.09-2.53-.12-3.85,7.49.9,39.74,7.95,53.54,7.95,3.36,0-2-2.29-1.32-2.35,5.79,2.72,11.57,5.53,12.69,6.42C210.61,443,212.47,449.09,210.34,449.8Z" style="fill:#263238"></path><path d="M136,257.62s6.88,67.48,7,69.08C143,327.32,140,417,140,417h45.49s-1.62-84.5-2.31-94c-.08-1.11-3-69.71-16.26-108.55H116.42s.44,22.82,10.82,39.32A86.33,86.33,0,0,1,136,257.62Z" style="fill:#37474f"></path><path d="M182.65,408.48c-1.25-.18-2.53-.14-3.78-.2s-2.65-.13-4-.16c-2.65-.05-5.3-.08-8-.11-5.3-.06-10.6-.05-15.9,0l-4.35,0a24.48,24.48,0,0,0-4.37.22.08.08,0,0,0,0,.15,21.45,21.45,0,0,0,3.75.28c1.33.06,2.66.09,4,.12,2.61.05,5.22.11,7.83.14,5.26.07,10.53.16,15.79.14,1.49,0,3,0,4.47-.05s3,0,4.47-.17C182.79,408.82,182.87,408.51,182.65,408.48Z" style="fill:#263238"></path><path d="M172.34,330.47c-1.2-24.31-3.75-48.51-7-72.63-1.76-13.2-3.82-26.39-7.39-39.25a0,0,0,0,0-.09,0,314.25,314.25,0,0,1,6.28,35.67c1.51,11.87,2.94,23.77,4.15,35.68,2.45,24.17,3.54,48.44,3.69,72.73.08,13.66-.28,27.31-.66,41,0,.13.19.12.2,0A560.54,560.54,0,0,0,172.34,330.47Z" style="fill:#263238"></path><path d="M169.9,223.83a.08.08,0,0,0-.15,0c.2,2.88.68,6-.6,8.73-1.13,2.39-3.27,3.74-5.24,5.35-.07,0,0,.15.07.13,2.63-.8,5.25-2.25,6.28-4.94C171.42,230.11,170.79,226.82,169.9,223.83Z" style="fill:#263238"></path><path d="M148,256.14a49.35,49.35,0,0,0-6.31.21,42.35,42.35,0,0,1-6.17-.11,24.57,24.57,0,0,1-3.07-.51c-1-.25-2-.64-3.06-.92a5.62,5.62,0,0,0-2.85.11c-1.09.24-2.19.42-3.3.56a32.13,32.13,0,0,1-7.65.2c-.1,0-.14.13,0,.15a31.63,31.63,0,0,0,6.51.68,25.12,25.12,0,0,0,3.35-.3,10.17,10.17,0,0,1,3.13-.41,28.88,28.88,0,0,1,3.06,1,23.33,23.33,0,0,0,3.1.63,31.88,31.88,0,0,0,6.33.2,27.86,27.86,0,0,0,7-1.09A.21.21,0,0,0,148,256.14Z" style="fill:#263238"></path><path d="M143.09,323a.07.07,0,0,0-.05,0,.07.07,0,0,0-.06,0,.07.07,0,0,0,0,.06l0,.16,0,0h0a0,0,0,0,0,.06,0l0-.15S143.11,323,143.09,323Z" style="fill:#263238"></path><path d="M141.89,311.36q-.6-6.57-1.29-13.12c-.91-8.75-1.78-17.5-2.68-26.24-.51-5-.88-10-1.69-14.89,0-.13-.22-.14-.22,0,.07,4.38.54,8.77.91,13.14s.76,8.75,1.17,13.13c.82,8.75,1.61,17.51,2.63,26.24q.43,3.72.93,7.43c.32,2.49.76,5,1.07,7.44,0,.1.18.1.17,0C142.5,320.11,142.29,315.73,141.89,311.36Z" style="fill:#263238"></path><path d="M168.12,201l4.44,23.81s-52.7.73-65.07-.14c0,0,12.94-50.4,26.25-64.85,6.65-7.23,14.47-6.69,19.45-1.63,1.26,1.27,16.29,21.15,17.88,28.74C172.45,193.61,168.12,201,168.12,201Z" style="fill:#FFC727"></path><path d="M146.62,169c3.52,6.53,21.6,30.16,30.53,32.48,14,3.63,35.63,2.06,44.78,2,5-.06-.26-31.26-5.54-29.46-6.87,2.35-29.62,5.08-32.23,5.18s-18.69-11.75-28.87-18.61C145.85,154.16,140.81,158.15,146.62,169Z" style="fill:#774442"></path><path d="M249.44,173a4.18,4.18,0,0,1-.88,4.7,6.21,6.21,0,0,1,2.63,3.31c.7,2.47-2.85,4.65-2.85,4.65a7.66,7.66,0,0,1,2.21,3.93c.43,2.43-2.84,5.13-2.84,5.13a6.72,6.72,0,0,1-.23,4.69c-1.86,3.9-8.42,4.64-12.58,5.15s-16.44-1.92-18.82-2.15l-5-25.43s10.29-9,24.48-8.76C239.72,168.24,248,170,249.44,173Z" style="fill:#774442"></path><path d="M248.32,177.26c-4.44-1.15-9-.93-13.51-1a.08.08,0,0,0,0,.16c4.51,0,9,.85,13.48,1A.11.11,0,0,0,248.32,177.26Z" style="fill:#263238"></path><path d="M248.2,185.28a11.63,11.63,0,0,0-3.12-.08c-1.11,0-2.21.11-3.32.19q-3.31.26-6.62.67c-.09,0-.1.17,0,.16,2.21-.16,4.41-.29,6.62-.36,1.11,0,2.22-.06,3.32-.08a14.12,14.12,0,0,0,3.12-.2A.15.15,0,0,0,248.2,185.28Z" style="fill:#263238"></path><path d="M247.61,194.69a8.3,8.3,0,0,0-2.81.07l-3,.28c-2,.17-4,.34-6.05.44-.1,0-.1.17,0,.16,2.06-.09,4.11-.16,6.16-.27l3-.18a7.81,7.81,0,0,0,2.72-.4A.06.06,0,0,0,247.61,194.69Z" style="fill:#263238"></path><path d="M208,174.91l1.64,32.47s-30.33-1.73-34.9-4.6-25.59-25.66-30.42-35.34,1.75-14,10.83-8.12,25.32,17.64,26.54,18.16S208,174.91,208,174.91Z" style="fill:#FFC727"></path><path d="M201.91,177c0-.09-.13-.1-.14,0-.38,4.78-.16,25.21.2,28.5,0,.08.14.07.15,0C202.39,195.79,202.45,185.73,201.91,177Z" style="fill:#263238"></path><path d="M169.37,197.68c-.24-.34-16.52-18.28-20.38-23.74-1-1.37-2.14-2.69-3.18-3.89-.06-.07-.19,0-.13.12.51.82.94,1.52,1.48,2.23l.77,1c-.55-.45-1.12-.85-1.7-1.25-.07,0-.15,0-.09.09.54.51,1.08,1,1.67,1.48.26.21.53.42.81.61l0,0,.08.1c4.78,7.55,20.09,23.19,20.33,23.47S169.68,198.11,169.37,197.68Z" style="fill:#263238"></path></g></svg>